<?xml version="1.0" encoding="UTF-8"?>
<!DOCTYPE svg PUBLIC "-//W3C//DTD SVG 1.1//EN" "http://www.w3.org/Graphics/SVG/1.1/DTD/svg11.dtd">
<!-- Creator: CorelDRAW (Versión OEM) -->
<svg xmlns="http://www.w3.org/2000/svg" xml:space="preserve" width="116mm" height="55mm" version="1.1" style="shape-rendering:geometricPrecision; text-rendering:geometricPrecision; image-rendering:optimizeQuality; fill-rule:evenodd; clip-rule:evenodd"
viewBox="0 0 11600 5500"
 xmlns:xlink="http://www.w3.org/1999/xlink"
 xmlns:xodm="http://www.corel.com/coreldraw/odm/2003">
 <defs>
  <style type="text/css">
   <![CDATA[
    .fil6 {fill:#1EA344;fill-rule:nonzero}
    .fil7 {fill:#1F4493;fill-rule:nonzero}
    .fil9 {fill:#289DD9;fill-rule:nonzero}
    .fil3 {fill:#46B593;fill-rule:nonzero}
    .fil10 {fill:#6180C0;fill-rule:nonzero}
    .fil2 {fill:#87BAE5;fill-rule:nonzero}
    .fil1 {fill:#8C0327;fill-rule:nonzero}
    .fil0 {fill:#C5A20D;fill-rule:nonzero}
    .fil5 {fill:#ED691B;fill-rule:nonzero}
    .fil8 {fill:#F8C177;fill-rule:nonzero}
    .fil4 {fill:#F9B11A;fill-rule:nonzero}
    .fil11 {fill:white;fill-rule:nonzero}
   ]]>
  </style>
 </defs>
 <g id="Capa_x0020_1">
  <metadata id="CorelCorpID_0Corel-Layer"/>
  <g id="_2173471471888">
   <g>
    <g>
     <path class="fil0" d="M4682.66 4921.38c0,0 -665.69,-284.96 -1138.77,-282.05 -118.27,0.79 -431.54,21.17 -550.33,33.07 -92.08,9.26 -188.65,12.96 -241.56,15.08 -39.42,1.59 -310.36,12.17 -578.64,-35.19 -125.41,-22.23 -303.21,-91.81 -658.81,-231.25 -192.88,-75.67 -335.49,-135.47 -560.12,-196.06 -178.59,-47.89 -278.61,-61.12 -392.91,-44.19 -64.82,9.53 -218.81,34.66 -339.73,157.69 -30.16,30.69 -159.28,162.45 -121.18,270.67 47.89,136.53 329.67,143.93 377.56,145.26 368.83,9.79 662.25,-232.3 790.31,-337.61 62.18,-51.06 106.1,-94.19 122.77,-111.13 116.68,-118.27 192.35,-236.01 273.31,-385.23 119.86,-220.66 119.06,-266.17 312.21,-664.63 45.24,-93.13 84.67,-172.24 150.55,-269.08 73.29,-107.69 141.55,-182.03 214.31,-260.88 68.53,-74.08 161.4,-167.75 279.14,-269.35 -69.59,39.42 -163.51,97.9 -266.7,178.86 -60.59,47.36 -127,100.81 -201.08,182.83 -26.19,29.1 -102.39,115.89 -197.91,284.16 -68.79,120.91 -92.08,186.53 -153.46,322.79 -103.98,230.98 -176.21,392.11 -299.24,569.12 -58.74,84.4 -144.46,206.11 -289.98,332.85 -83.61,72.76 -209.02,182.3 -396.61,249.24 -246.06,87.84 -570.18,92.6 -606.43,-2.91 -25.93,-68.53 96.84,-187.33 210.87,-245.27 59.53,-30.43 201.35,-86.52 564.89,0.79 46.3,11.11 85.99,22.23 123.3,33.87 227.01,71.97 387.09,148.43 431.8,170.13 131.23,63.5 349.78,145.26 731.57,222.78 203.73,26.99 367.51,26.46 482.34,20.11 82.55,-4.5 206.9,-15.61 301.1,-25.4 68,-7.14 145.79,-16.14 257.18,-21.96 0,0 197.11,-14.02 371.48,-14.29 358.25,-0.53 903.29,175.42 998.54,206.38l0.23 0.8z"/>
     <path class="fil1" d="M4255.09 4921.38c-180.18,64.03 -604.04,119.86 -917.58,127.26 -86.78,2.12 -652.2,-41.28 -1046.96,-166.69 -197.11,-62.71 -347.66,-137.58 -433.92,-180.98 -206.11,-103.45 -269.88,-162.19 -415.66,-247.39 -204.52,-119.59 -704.85,-409.58 -1040.34,-241.3 -120.91,60.59 -235.74,188.38 -209.29,262.47 22.23,61.65 138.91,74.88 197.11,81.49 125.15,14.02 223.57,-12.7 375.44,-72.5 117.21,-46.04 213.52,-84.14 329.41,-165.89 143.14,-101.07 225.16,-199.23 304.8,-307.71 71.97,-97.9 115.36,-181.24 148.17,-243.68 0,0 72.5,-138.11 129.38,-296.86 18.26,-51.06 21.43,-62.97 34.13,-102.39 0,0 8.2,-25.93 25.4,-76.2 62.18,-181.24 93.13,-271.99 152.93,-359.83 55.3,-81.49 114.3,-132.56 191.29,-198.7 79.64,-68.79 148.17,-112.98 176.48,-130.7 83.34,-52.12 151.08,-82.55 215.37,-110.6 59.27,-25.93 137.58,-56.89 231.78,-86.52 -46.3,22.23 -111.92,55.56 -188.91,100.54 -90.49,52.92 -169.07,98.69 -260.61,177.01 -71.44,60.85 -124.09,118.53 -157.96,158.75 -26.46,31.22 -61.65,73.55 -98.43,132.82 -27.52,44.19 -60.59,105.57 -108.74,243.15 -40.75,116.42 -53.45,175.68 -75.94,251.35 -8.47,28.58 -64.56,213.25 -159.01,384.97 -113.24,205.58 -250.56,334.96 -328.61,407.72 -105.04,97.9 -251.88,234.69 -488.42,327.29 -129.12,50.54 -333.38,127 -547.42,55.03 -56.62,-19.05 -163.25,-55.03 -194.73,-143.14 -42.33,-119.59 79.38,-261.94 161.4,-326.5 197.38,-156.1 454.82,-122.5 527.05,-112.18 49.48,6.88 122.5,21.96 326.23,114.56 239.98,109.27 373.59,195.53 544.78,292.63 222.78,126.21 395.02,223.84 615.69,304.54 86.52,31.75 589.23,171.71 950.65,201.61 355.86,29.37 821.27,-3.97 1035.58,-53.45l-0.54 0.02z"/>
    </g>
    <g>
     <g>
      <path class="fil2" d="M3078.49 1657.21c-84.4,22.49 -179.92,58.21 -276.23,115.62 -375.97,223.57 -482.86,608.81 -510.91,729.72 131.23,-133.35 248.44,-230.45 332.05,-295.01 150.28,-116.15 245.53,-168.28 334.7,-291.84 70.64,-97.9 103.72,-193.41 120.65,-258.23l-0.26 -0.26z"/>
      <path class="fil3" d="M3315.82 1928.41c-111.65,6.35 -231.25,23.81 -355.07,58.74 -687.39,193.15 -1002.77,742.16 -1093.79,951.97 189.71,-228.07 352.16,-328.88 495.3,-401.11 293.69,-147.64 547.16,-160.34 786.87,-395.29 83.08,-81.49 136,-161.4 166.69,-214.31z"/>
     </g>
     <g>
      <path class="fil4" d="M2993.29 1573.61c-102.92,-56.09 -196.06,-78.85 -273.05,-86.78 -105.3,-10.58 -171.19,7.94 -390.53,43.39 -111.92,17.99 -212.2,32.28 -297.66,43.39 66.68,29.37 166.42,67.73 292.36,96.84 126.74,29.37 224.1,51.86 346.87,35.72 62.97,-8.2 187.85,-33.87 322.26,-132.56l-0.25 0z"/>
      <path class="fil5" d="M3098.07 1428.35c-106.1,20.64 -310.89,114.56 -435.24,111.39 -685.01,-16.93 -1079.76,-538.69 -1232.43,-707.76 242.89,165.1 478.9,238.92 629.97,271.73 314.06,68.53 532.08,18.52 810.68,184.68 97.63,58.21 185.47,96.57 227.01,139.96l0.01 0z"/>
      <path class="fil6" d="M3098.07 1428.35c-78.85,9.53 -194.73,17.2 -332.32,2.65 -516.2,-54.5 -850.37,-370.15 -984.25,-496.89 -346.34,-327.03 -474.66,-694.8 -524.67,-884.24 289.45,456.67 599.28,657.49 837.41,755.39 195.53,80.43 492.92,153.46 795.87,412.22 94.99,81.23 163.78,157.69 207.7,210.61l0.26 0.26z"/>
     </g>
     <g>
      <path class="fil7" d="M4884.8 728.53c-52.65,-0.53 -126.21,1.32 -212.99,11.91 -139.44,16.93 -264.58,32.28 -382.59,95.25 -247.39,132.56 -338.14,410.1 -375.18,518.58 -7.67,22.49 -1.59,7.41 -45.51,153.19 -70.11,232.83 -88.9,283.1 -127.79,341.84 -45.77,69.32 -94.46,112.71 -128.06,142.35 -91.28,80.7 -201.35,143.4 -324.11,182.03 0.79,-0.79 1.59,-1.59 2.38,-2.38 5.29,-4.76 10.32,-9.53 15.35,-14.29l0 0c44.19,-42.86 99.48,-105.83 146.05,-191.03 0.79,-1.32 1.32,-2.65 2.12,-3.97 39.42,-73.55 58.74,-154.52 61.12,-236.54 1.32,-46.04 5.82,-98.16 15.61,-154.78 9.53,-55.03 23.28,-130.7 63.5,-221.99 57.15,-129.91 136,-219.08 194.47,-283.9 9.53,-10.58 42.33,-46.83 75.41,-77.52 227.01,-210.61 569.38,-250.3 655.64,-260.35 85.73,-10.05 211.4,-16.93 364.33,1.85l0.25 -0.25z"/>
      <path class="fil8" d="M3950.03 919.03c-34.13,25.66 -79.64,62.44 -128.59,111.13 -40.75,40.48 -130.44,130.97 -201.35,266.44 -29.37,56.36 -52.12,113.77 -69.32,157.16 -37.04,93.93 -44.98,132.82 -87.31,183.62 -7.94,9.53 -41.01,47.89 -97.1,81.76 -96.31,57.94 -195,62.18 -241.83,61.12 82.55,-52.12 127.79,-107.42 154.25,-149.23 42.07,-66.68 36.51,-100.01 88.9,-236.01 35.98,-93.4 53.71,-139.96 87.31,-189.97 77.26,-115.36 180.18,-178.59 226.75,-203.99 107.42,-58.74 208.49,-76.2 268.02,-82.02l0.27 -0.01z"/>
      <path class="fil9" d="M3983.63 800.76c-56.36,-22.49 -162.98,-54.5 -275.96,-20.37 -116.42,35.19 -184.94,123.83 -237.6,192.62 -87.58,114.04 -77.52,169.86 -162.45,243.68 -63.24,55.03 -134.14,80.43 -183.09,93.4 87.58,-52.12 130.97,-107.95 154.25,-149.23 38.89,-68.53 31.75,-111.92 87.31,-219.6 26.99,-52.12 40.75,-79.11 68.26,-109.8 54.5,-60.85 159.81,-132.82 297.66,-130.18 138.11,2.91 228.86,79.38 251.35,99.48l0.27 0z"/>
      <g>
       <ellipse class="fil10" cx="3742.86" cy="854.47" rx="59.79" ry="55.82"/>
       <ellipse class="fil11" cx="3745.5" cy="848.38" rx="25.66" ry="23.81"/>
      </g>
     </g>
    </g>
   </g>
   <g>
    <g>
     <path class="fil0" d="M10505.08 49.87c5.82,4.5 11.38,9 17.46,13.49 13.76,10.05 27.25,20.9 41.54,29.9 39.16,24.87 79.9,47.36 116.15,76.99 25.93,21.17 49.21,44.19 67.73,71.97 5.03,7.41 8.73,16.14 10.85,24.87 4.76,21.43 7.94,43.13 11.64,64.56 6.35,35.72 22.49,62.97 60.33,73.03 11.38,2.91 22.49,7.41 32.54,13.23 38.1,21.7 76.2,43.39 112.98,66.94 64.82,41.54 128.32,84.67 192.62,127 11.64,7.67 23.55,14.82 35.98,20.9 13.23,6.61 28.31,9.53 41.8,2.38 22.75,-11.91 39.95,-29.63 44.19,-56.09 3.97,-24.61 1.59,-49.48 -6.35,-72.76 -12.7,-37.84 -33.34,-71.44 -57.94,-102.66 -34.4,-43.66 -69.85,-86.25 -100.28,-132.82 -18.79,-28.58 -36.51,-57.68 -50.54,-88.9 -9,-20.37 -16.14,-41.8 -22.23,-63.24 -2.91,-10.58 -2.38,-22.23 -2.12,-33.34 0,-3.97 4.5,-7.67 6.88,-11.38 3.18,2.38 6.61,4.76 9.53,7.41 1.32,1.32 1.85,3.7 2.91,5.56 14.29,27.52 29.1,54.77 48.15,79.38 21.43,27.52 43.92,53.45 72.23,74.61 33.07,24.61 65.09,50.27 96.04,77.26 52.39,45.77 95.78,98.95 127.26,161.4 13.49,26.72 26.99,53.98 30.16,84.14 2.91,26.99 3.7,54.5 3.44,81.76 -0.26,28.84 -3.44,57.68 -4.76,86.52 -2.12,51.06 5.56,101.34 9,152.14 0.53,9.53 3.18,19.05 6.35,28.05 15.08,44.98 31.75,89.69 46.04,134.94 11.11,35.45 14.29,72.23 6.61,109.54 -4.76,22.49 -9.53,45.24 -12.17,68 -8.2,71.44 -12.17,142.88 -11.64,214.84 0.53,61.65 -22.49,115.36 -64.82,160.07 -32.28,34.13 -72.76,56.36 -114.56,76.46 -34.66,16.67 -70.91,28.31 -107.42,38.89 -22.75,6.35 -45.51,13.23 -68.79,15.88 -39.95,4.76 -80.17,7.41 -120.12,9.53 -32.54,1.85 -65.35,3.97 -97.9,2.38 -72.5,-3.7 -144.73,-3.97 -216.96,0.79 -61.65,3.97 -123.03,9.53 -184.15,16.93 -81.49,9.79 -162.72,22.23 -243.95,33.6 -73.82,10.32 -147.11,24.61 -218.81,46.04 -66.15,19.84 -130.18,43.92 -188.65,81.76 -8.47,5.56 -16.93,11.38 -25.93,16.4 -34.66,19.84 -66.68,43.13 -95.25,71.17 -35.72,35.19 -67.47,73.82 -93.66,116.42 -16.4,26.99 -28.58,56.36 -42.86,84.67 -3.18,6.35 -4.76,14.29 -12.96,17.2 -7.94,-5.03 -10.32,-12.7 -12.96,-20.11 -2.91,-7.94 -5.82,-16.14 -8.47,-24.08 -16.93,-48.15 -30.43,-96.84 -28.58,-148.7 2.91,-75.41 33.6,-137.58 90.75,-187.06 32.81,-28.31 69.59,-50.54 108.48,-69.06 50.8,-24.08 104.78,-38.36 158.22,-54.77 56.09,-17.2 110.6,-37.84 159.54,-71.7 28.58,-19.84 53.45,-42.86 72.5,-72.5 17.99,-28.05 27.25,-58.74 27.25,-91.28 0,-54.24 -18.26,-102.92 -50.8,-145.79 -19.05,-25.14 -39.42,-48.95 -56.09,-75.67 -12.7,-20.37 -21.7,-41.54 -27.25,-64.56 -2.91,-11.91 -0.79,-23.55 4.23,-34.4 1.59,-3.7 6.61,-7.41 10.58,-8.2 5.82,-1.32 7.67,4.23 9,9 0.79,3.18 1.32,6.35 2.65,9.26 5.56,13.76 9,29.1 16.93,41.28 23.28,35.19 52.12,64.82 91.55,82.81 7.67,3.44 15.35,7.67 22.49,12.44 30.96,19.84 52.92,47.1 68.79,80.43 17.46,36.25 28.05,73.82 30.16,113.77 0.79,16.4 0,33.07 -1.06,49.74 -1.06,21.96 5.56,40.75 22.75,53.98 21.17,16.14 44.98,25.66 72.5,26.46 36.78,1.32 72.76,-2.65 108.48,-11.64 31.75,-8.2 63.5,-17.2 90.75,-36.25 22.23,-15.61 41.01,-33.87 48.95,-61.65 10.32,-37.04 9.79,-73.03 -4.23,-108.48 -4.23,-10.85 -11.64,-19.31 -22.23,-24.08 -9.26,-4.23 -18.79,-7.94 -28.31,-11.38 -75.67,-27.52 -140.49,-70.11 -189.44,-134.41 -32.81,-43.13 -50.54,-91.28 -46.83,-146.31 1.59,-23.81 -5.29,-45.77 -15.35,-66.41 -8.2,-16.67 -19.31,-31.75 -29.1,-47.63 -2.65,-4.23 -4.76,-8.47 -9,-15.61 5.82,1.59 8.2,1.32 9.79,2.38 34.4,22.49 62.18,50.54 77.26,89.43 6.09,15.35 11.38,31.22 17.73,46.57 25.93,62.44 70.38,108.21 130.7,137.05 30.69,14.55 63.5,25.93 96.31,35.45 32.28,9.26 63.5,5.29 90.49,-18.52 19.58,-17.2 33.34,-37.84 43.13,-61.38 14.02,-33.34 21.7,-68.53 27.78,-103.98 3.97,-24.61 -0.79,-32.01 -24.08,-41.8 -61.65,-26.19 -120.12,-58.47 -173.57,-99.22 -28.05,-21.43 -51.06,-46.83 -67.2,-78.32 -2.91,-5.56 -6.88,-10.85 -3.18,-18.79 3.7,1.32 7.67,1.85 10.32,3.97 22.49,18.52 49.48,29.63 74.88,43.13 51.06,26.99 104.78,45.77 160.6,59.53 6.88,1.59 13.49,3.18 20.37,4.23 17.46,2.38 25.93,-4.5 25.4,-21.96 -0.53,-28.05 -6.61,-55.56 -18.52,-80.7 -15.35,-32.28 -35.72,-61.65 -63.76,-85.46 -29.1,-24.61 -59.8,-46.3 -92.6,-65.88 -42.86,-25.4 -87.58,-46.83 -135.2,-61.91 -43.92,-14.02 -89.16,-22.75 -132.03,-40.22 -51.06,-20.9 -102.92,-39.69 -149.49,-69.59 -32.81,-20.9 -61.12,-46.57 -84.4,-77.79 -5.29,-7.14 -10.32,-14.55 -10.05,-27.25 7.14,3.97 12.7,6.61 17.73,10.05 49.74,32.54 101.86,60.85 158.75,79.11 71.97,23.28 145.79,38.89 220.4,51.86 25.93,4.5 51.59,9 76.99,15.88 44.71,11.91 85.73,33.07 126.47,54.5 32.01,16.67 60.06,39.16 85.99,63.76 18.26,17.2 35.72,35.72 50.27,55.83 32.01,44.45 56.62,92.6 68,147.37 5.29,25.4 9.53,50.27 7.67,76.2 -1.59,21.17 3.18,28.05 22.49,35.19 16.4,6.35 33.07,12.44 49.74,18.52 69.06,25.14 135.47,55.83 201.35,87.84 51.06,24.61 100.01,53.18 150.28,79.38 7.94,4.23 16.93,7.14 25.66,8.2 9,1.32 14.02,-3.97 15.08,-12.96 0.53,-4.23 0,-8.47 -0.53,-12.7 -4.5,-30.16 -9.26,-60.06 -14.02,-90.22 -6.35,-38.63 -13.49,-76.99 -27.25,-113.51 -8.2,-21.96 -19.31,-42.6 -28.84,-64.03 -26.19,-57.94 -62.18,-109.8 -102.39,-158.22 -32.81,-39.16 -70.11,-74.61 -108.48,-109.01 -41.54,-37.04 -87.31,-68.79 -132.82,-100.28 -45.77,-31.49 -94.19,-59 -143.14,-85.2 -29.1,-15.61 -59.53,-29.1 -89.69,-43.13 -32.01,-14.82 -63.76,-30.16 -96.84,-42.86 -55.03,-21.17 -110.33,-40.75 -166.16,-59.8 -54.77,-18.79 -110.86,-32.28 -168.01,-43.13 -33.6,-6.35 -67.2,-13.76 -100.28,-22.75 -57.94,-15.88 -111.13,-41.28 -155.58,-83.08 -31.75,-29.9 -51.59,-66.41 -60.59,-108.74 -1.32,-5.82 0,-11.91 0,-17.99 1.32,-0.53 2.65,-1.06 3.97,-1.59 2.91,3.44 6.09,6.61 8.47,10.32 5.82,8.47 11.11,16.93 16.67,25.4 32.01,48.15 74.35,83.61 129.91,101.6 10.05,3.44 20.37,6.61 30.69,9.26 80.96,20.37 161.93,40.75 243.15,60.85 39.42,9.79 78.85,20.11 118.8,28.05 19.05,3.7 39.42,4.5 59,3.44 22.23,-1.06 38.36,-15.08 42.07,-33.87 3.97,-19.58 3.7,-38.89 -4.23,-58.21 -13.23,-32.54 -37.04,-56.36 -64.29,-76.2 -24.87,-17.99 -47.36,-38.1 -65.62,-62.71 -2.91,-3.97 -5.03,-8.47 -7.67,-12.96l3.97 -3.18 -0.26 -0.5zm753.53 1258.09c-40.75,-34.66 -84.67,-64.82 -132.03,-89.96 -59,-31.49 -119.86,-58.74 -184.15,-77.79 -8.2,-2.38 -16.67,-4.23 -25.14,-5.03 -22.49,-2.38 -34.13,5.82 -40.22,27.78 -7.67,27.25 -15.08,54.77 -22.49,82.29 -22.75,83.87 -46.04,167.48 -68.26,251.62 -5.03,18.52 -8.2,37.84 -9.53,56.89 -2.38,36.78 18.52,64.03 54.24,72.5 12.44,2.91 25.4,3.7 38.1,3.7 45.51,0 91.02,0 136.53,-1.32 65.62,-2.38 129.65,-16.14 193.41,-32.28 32.54,-8.2 58.47,-26.72 79.11,-52.65 10.58,-13.49 20.64,-27.52 29.9,-41.8 4.76,-7.67 8.47,-16.14 11.11,-24.87 15.61,-49.74 1.85,-93.66 -27.52,-134.14 -2.12,-2.91 -4.76,-5.82 -7.14,-8.47 0,0 0.53,-0.53 0.79,-0.79 -8.73,-8.47 -17.2,-17.46 -26.72,-25.4l0.01 -0.28z"/>
     <g>
      <g>
       <g>
        <path class="fil1" d="M9480.61 4086.09c22.49,-18.52 50.01,-51.86 66.94,-91.81 28.05,-65.62 69.32,-122.24 114.56,-176.21 26.19,-31.22 59,-56.09 93.13,-79.11 50.27,-33.87 105.3,-57.94 161.93,-78.58 10.32,-3.7 20.64,-9.26 29.63,-15.61 16.4,-11.91 20.37,-28.58 12.17,-47.1 -12.17,-27.25 -30.96,-48.15 -57.41,-62.44 -34.13,-18.79 -71.17,-28.84 -108.48,-38.63 -75.67,-19.84 -152.93,-28.05 -230.72,-26.99 -65.88,1.06 -131.5,8.2 -196.59,20.9 -73.29,14.55 -144.99,35.45 -214.84,62.44 -64.29,24.61 -126.74,53.45 -186,88.9 -33.87,20.37 -61.12,48.95 -87.31,78.32 -27.78,31.49 -48.15,67.2 -59.27,107.69 -11.38,41.01 -9.26,81.23 3.7,121.71 12.17,38.89 26.99,76.73 43.13,113.77 14.02,32.01 24.08,65.09 25.93,100.28 0.53,10.05 3.18,20.11 3.44,30.16 0,18.26 -0.53,36.25 -1.32,54.5 -0.79,15.61 1.85,19.05 17.46,19.05 55.83,-0.26 111.13,-8.47 166.42,-15.88 75.94,-10.32 149.49,-29.63 220.93,-57.15 62.18,-24.08 118.53,-58.47 182.56,-108.21l0.01 0z"/>
        <path class="fil1" d="M8728.14 3705.09c5.82,-9.53 11.64,-17.73 15.88,-26.72 24.87,-51.59 61.12,-93.93 104.78,-130.97 61.91,-52.92 132.03,-90.22 208.49,-116.42 37.57,-12.96 75.94,-23.02 114.04,-34.66 5.56,-1.59 11.38,-3.18 16.93,-5.29 13.76,-5.56 17.99,-13.76 13.76,-28.05 -3.44,-11.91 -8.2,-23.28 -11.91,-34.93 -19.31,-57.68 -29.9,-117.21 -35.98,-177.27 -3.7,-35.98 -2.38,-72.76 -2.12,-109.01 0.26,-63.76 7.94,-127.26 20.37,-189.97 14.55,-73.29 35.45,-144.73 59.53,-215.37 36.25,-106.36 89.96,-203.99 150.28,-298.45 7.94,-12.44 15.35,-25.4 23.55,-39.16 -9,-2.65 -14.82,1.85 -20.37,5.03 -47.1,26.19 -91.55,56.36 -135.2,87.58 -25.93,18.26 -51.86,36.51 -77.26,55.56 -28.31,21.43 -56.09,43.39 -83.61,65.62 -23.02,18.52 -46.04,37.31 -67.47,57.41 -31.49,29.9 -62.71,60.33 -92.34,92.34 -29.37,32.01 -58.47,64.56 -84.4,99.48 -40.22,53.71 -75.67,111.13 -105.83,170.92 -47.1,93.13 -80.17,191.03 -92.08,295.01 -1.85,15.88 -4.23,31.75 -6.09,47.89 -5.03,48.68 -2.12,97.37 1.59,145.79 2.65,34.66 6.88,69.32 12.44,103.45 3.7,21.43 10.32,42.6 17.2,63.24 10.58,30.96 22.23,61.12 33.87,91.55 3.7,9.79 7.94,19.84 21.96,25.66l-0.01 -0.26z"/>
       </g>
       <g>
        <path class="fil1" d="M9941.25 2060.17c59.8,-41.8 126.21,-69.06 195.53,-89.43 56.09,-16.67 113.51,-28.31 171.71,-35.45 47.36,-5.82 94.46,-14.02 142.61,-11.91 16.14,0.79 20.37,5.03 17.73,20.9 -6.35,38.89 1.32,76.73 5.82,114.83 1.32,10.05 3.7,20.11 7.14,29.37 12.17,31.49 25.93,62.18 37.04,93.93 11.64,32.54 20.9,66.15 31.22,99.22 1.32,4.5 1.32,9.53 1.32,14.29 0.26,30.16 -4.23,59.8 -14.82,88.37 -13.76,36.25 -35.19,67.2 -61.38,95.78 -30.69,33.6 -63.5,64.03 -105.04,84.14 -37.31,17.99 -74.08,37.04 -111.65,54.24 -63.24,28.84 -129.12,50.54 -196.32,67.2 -43.66,10.85 -88.11,19.05 -132.82,25.14 -43.92,6.09 -88.64,10.58 -132.82,10.85 -70.38,0.53 -140.23,-5.82 -208.49,-23.81 -43.92,-11.64 -88.9,-20.11 -129.12,-42.6 -26.46,-14.82 -46.57,-35.72 -57.68,-64.29 -6.35,-16.67 -3.44,-30.69 10.58,-41.8 9,-7.14 19.58,-13.23 30.43,-17.2 57.41,-20.37 112.71,-45.24 163.25,-79.64 41.54,-28.31 81.49,-59 111.13,-99.75 37.04,-50.54 75.14,-100.54 99.22,-159.54 16.4,-40.22 45.24,-72.76 79.64,-101.34 14.82,-10.05 30.16,-20.64 45.77,-31.49l0 -0.01zm285.49 202.94c21.96,-11.91 34.4,-33.07 29.9,-53.98 -3.44,-16.14 -12.17,-29.63 -25.4,-39.69 -28.84,-21.96 -61.65,-29.37 -97.1,-21.43 -10.58,2.38 -21.7,7.94 -29.63,15.08 -23.81,21.43 -24.61,48.42 -3.97,74.35 27.25,34.13 87.58,46.57 125.94,25.93l0.26 -0.26z"/>
        <path class="fil1" d="M9960.83 3893.74c5.56,-2.38 11.64,-3.97 16.93,-7.14 38.36,-24.08 76.73,-47.63 114.3,-72.76 33.07,-22.23 65.62,-44.98 96.84,-69.59 44.45,-34.66 88.37,-70.11 131.23,-106.63 28.58,-24.34 56.36,-50.01 82.55,-76.73 26.99,-27.78 51.06,-58.21 77.26,-86.25 31.22,-33.6 56.89,-71.7 80.96,-110.07 37.57,-59.53 71.7,-120.65 98.16,-186.53 33.07,-82.02 52.12,-166.69 61.12,-254 5.03,-50.8 1.85,-101.6 0,-152.4 -1.85,-42.07 -7.67,-83.34 -17.46,-123.83 -9.26,-38.36 -24.34,-75.14 -37.04,-112.45 -3.44,-10.05 -7.67,-19.84 -11.91,-29.63 -1.85,-4.5 -4.23,-8.73 -7.14,-12.44 -6.35,-7.94 -12.17,-7.94 -17.99,0.53 -6.35,9.26 -12.17,19.05 -16.67,29.37 -15.88,34.93 -39.95,63.76 -66.68,90.22 -57.41,57.15 -124.35,100.01 -199.5,130.97 -50.27,20.9 -102.39,35.45 -154.78,50.01 -5.29,1.32 -10.32,2.91 -15.35,4.76 -15.35,5.56 -20.11,14.55 -15.35,30.16 3.7,11.64 9.26,22.75 12.17,34.66 9.53,38.36 19.58,76.73 26.99,115.36 9,46.83 11.11,94.46 11.11,142.08 0,88.64 -8.2,176.48 -29.9,262.73 -16.4,65.62 -34.13,130.7 -58.74,193.94 -11.64,29.9 -25.4,59 -38.89,88.37 -12.96,27.78 -25.4,55.56 -40.48,82.29 -20.11,35.98 -42.33,70.91 -63.76,106.36 -6.88,11.38 -13.49,23.02 -20.11,34.4l2.12 3.7 0.01 0.54z"/>
       </g>
      </g>
      <g>
       <path class="fil1" d="M3547.86 4258.6c-211.14,-126.21 -253.21,-295.8 -142.08,-555.89 68,-158.49 165.1,-296.6 278.34,-424.92 157.96,-179.12 302.15,-370.68 500.59,-510.38 94.46,-66.41 194.73,-113.24 306.92,-134.14 73.29,-13.76 131.5,29.1 194.47,56.36 42.86,18.52 86.78,73.55 128.06,-17.46 18.79,-41.54 93.13,-38.63 144.99,-41.01 71.97,-3.18 144.2,-3.44 223.84,24.61 -215.37,481.01 -481.81,933.98 -749.56,1391.97 37.04,17.73 62.97,-7.94 89.69,-20.64 209.02,-100.01 374.65,-262.73 562.24,-392.91 192.62,-133.61 266.17,-355.34 423.6,-512.76 168.54,-168.8 324.38,-350.04 551.92,-445.29 110.07,-46.04 212.73,-58.47 322.26,5.56 43.66,25.4 107.69,95.51 153.19,-14.02 8.73,-21.17 63.76,-30.43 98.16,-32.01 81.49,-3.44 182.56,-39.16 237.07,30.16 39.42,50.27 -23.55,126.21 -49.48,187.06 -100.54,235.21 -254,439.74 -382.32,658.81 -58.74,100.01 -113.24,202.14 -165.63,305.59 -9.53,18.79 -38.36,47.1 -3.18,72.76 29.1,21.17 49.48,-2.12 72.76,-12.44 152.4,-68.53 228.6,-211.93 325.44,-334.96 16.93,-21.7 33.34,-43.66 48.15,-66.94 10.32,-16.14 18.52,-42.86 39.69,-34.13 23.81,9.79 22.23,40.22 21.7,63.5 -2.12,80.7 -37.84,152.14 -81.76,213.78 -139.7,195.26 -301.89,369.09 -508.26,496.09 -81.76,50.27 -173.57,56.62 -264.05,44.45 -60.85,-7.94 -99.75,-55.56 -121.44,-113.77 -13.76,-37.57 -26.19,-75.67 -42.6,-123.83 -129.38,191.29 -292.1,301.63 -514.61,210.08 -161.13,-66.15 -189.44,-235.74 -117.21,-539.22 -195.26,163.51 -386.03,335.76 -625.48,416.19 -181.24,61.12 -222.78,218.02 -301.63,349.51 -152.66,255.32 -307.98,509.06 -530.49,707.76 -171.19,152.93 -360.1,283.37 -608.81,272.52 -139.96,-6.09 -260.09,-59.53 -324.91,-180.98 -60.06,-112.45 -39.95,-238.13 24.61,-351.1 103.19,-180.71 266.96,-293.42 442.38,-390.53 157.96,-87.58 323.32,-159.81 493.45,-220.13 54.5,-17.46 108.21,-38.36 163.51,-51.59 77.79,-18.79 109.27,-75.41 128.59,-147.64 -111.92,156.63 -270.4,177.8 -442.12,162.45l0 -0.52zm346.08 51.59c-260.35,86.25 -502.18,193.68 -713.85,361.95 -133.35,105.83 -263.53,216.16 -306.39,391.85 -20.9,85.73 -38.36,181.5 47.36,244.48 79.11,57.94 167.75,62.71 255.85,10.85 110.07,-64.56 191.03,-159.54 265.64,-259.56 173.57,-232.57 334.43,-473.08 450.85,-749.56l0.54 -0.01zm1706.56 -493.18c1.06,73.03 10.85,108.74 41.54,117.48 51.06,14.29 79.64,-25.4 111.39,-54.77 3.97,-3.7 8.2,-7.67 11.91,-11.91 252.94,-287.6 443.97,-615.69 619.92,-953.56 14.82,-28.58 35.19,-58.21 15.35,-90.75 -23.55,-38.63 -64.56,-24.08 -98.95,-24.34 -32.01,0 -56.09,21.96 -79.64,40.48 -228.6,178.59 -390.26,411.43 -525.99,664.1 -52.12,97.1 -92.08,200.29 -95.51,313.27l-0.02 0zm-1719.26 6.08c-0.53,42.07 -7.41,85.99 40.75,109.27 46.57,22.49 69.85,-19.58 101.34,-37.84 14.29,-8.2 29.37,-17.73 39.16,-30.69 239.45,-307.45 451.91,-632.09 620.71,-985.04 26.46,-55.56 -4.5,-70.91 -44.45,-79.38 -59,-12.44 -106.1,17.46 -150.55,53.18 -190.24,152.93 -329.67,348.72 -456.14,554.04 -78.85,127.79 -141.55,263 -150.81,416.72l-0.01 -0.26z"/>
       <path class="fil1" d="M7460.78 4051.69c-35.72,22.49 -47.89,61.38 -72.5,89.96 -77.26,89.69 -171.45,124.62 -292.1,130.44 -144.73,6.88 -295.01,-91.28 -308.24,-237.07 -8.73,-97.37 2.91,-192.88 40.75,-285.22 76.73,-186.8 191.03,-350.04 318.82,-502.97 144.2,-172.51 290.25,-344.49 478.37,-472.81 85.46,-58.47 178.33,-97.1 278.61,-118.27 70.91,-15.08 127.53,25.66 186.27,55.03 106.1,52.65 99.48,50.54 143.67,-53.45 177.54,-416.72 325.44,-795.07 511.97,-1194.86 17.2,-37.04 37.57,-56.89 81.23,-54.5 63.76,3.44 128.06,-1.59 192.09,1.59 56.89,2.91 93.93,18.79 110.86,46.83 22.49,37.57 4.5,89.16 -6.35,111.13 -169.07,345.02 -213.78,423.33 -221.46,439.21 -71.17,146.05 -199.5,387.61 -432.86,857.25 -32.01,64.29 -67.47,139.17 -147.64,297.66 -93.4,184.94 -125.94,238.65 -194.2,352.16 -63.76,106.36 -112.71,215.37 -154.52,332.05 -7.94,22.23 -29.37,44.71 -2.65,67.73 25.66,22.23 47.1,-0.79 67.47,-10.32 93.66,-42.33 159.28,-116.95 219.34,-197.91 54.24,-73.55 109.01,-146.84 164.57,-219.34 9.26,-11.91 20.11,-30.69 39.69,-23.28 20.64,7.41 12.17,28.58 13.49,43.66 10.85,121.71 -59.53,211.93 -125.41,299.24 -112.71,149.23 -245.8,278.61 -396.08,391.05 -92.87,69.32 -198.7,75.94 -304.01,84.4 -56.36,4.76 -105.57,-28.05 -129.91,-85.46 -19.84,-47.1 -39.16,-94.72 -59.53,-144.2l0.26 0.27zm-166.42 -172.5c5.82,23.02 14.82,59 50.54,77.26 33.87,17.2 60.06,-7.67 81.23,-25.66 54.77,-46.83 102.39,-100.81 144.46,-159.81 189.71,-267.49 372.27,-539.22 514.09,-836.35 14.82,-30.69 44.19,-67.73 8.47,-98.69 -33.87,-29.37 -78.32,-19.31 -117.74,-6.61 -17.73,5.82 -33.6,18.52 -48.68,30.16 -207.43,162.98 -364.07,368.56 -493.18,596.9 -72.5,127.79 -131.5,260.61 -139.17,422.54l-0.02 0.26z"/>
       <path class="fil1" d="M3299.68 2615.01c122.5,46.57 176.48,193.41 147.9,355.34 -46.04,259.29 -225.95,401.9 -432.33,523.08 -106.89,62.71 -220.93,109.01 -341.58,140.76 -124.62,32.81 -167.75,95.51 -173.83,233.63 -1.06,22.23 -0.53,44.71 0,67.2 1.59,83.08 47.1,116.68 124.88,90.75 170.92,-56.62 312.74,-152.14 433.92,-289.98 89.16,-101.34 166.16,-216.96 282.58,-293.16 17.46,-11.38 34.66,-24.61 51.59,-10.58 17.99,14.82 8.47,35.45 -3.18,52.39 -195,286.81 -391.58,573.62 -717.29,728.93 -121.97,58.21 -252.41,64.56 -387.35,41.28 -202.94,-35.19 -248.18,-233.63 -233.1,-381.79 41.01,-407.19 258.23,-723.37 539.22,-999.07 128.32,-125.68 275.17,-230.72 460.9,-259.03 82.55,0 165.1,0 247.65,0l0.02 0.25zm-700.61 940.06c32.01,7.94 50.8,2.38 72.5,-6.09 199.5,-76.2 358.51,-206.11 484.98,-375.44 73.29,-98.43 123.83,-207.96 112.45,-338.14 -6.61,-75.67 -28.31,-100.01 -97.1,-79.38 -53.18,16.14 -100.81,48.68 -136.26,91.55 -176.74,213.52 -320.94,447.41 -436.83,707.5l0.26 0z"/>
      </g>
     </g>
    </g>
    <g>
     <g>
      <path class="fil0" d="M5679.15 4927.99c0,-4.97 3.16,-15.7 9.48,-32.16 6.32,-16.47 14.27,-36.1 23.84,-58.88 9.57,-22.78 19.91,-47.39 31.02,-73.81 11.1,-26.42 21.44,-52.18 31.02,-77.26 9.57,-25.08 17.52,-48.15 23.83,-69.22 6.32,-21.06 9.48,-37.52 9.48,-49.4 0,-6.51 -0.29,-12.92 -0.86,-19.24 -0.57,-6.32 -2.58,-12.92 -6.03,-19.82 4.59,-1.53 9.96,-2.29 16.08,-2.29 9.19,0 18.86,1.72 29.01,5.17 10.15,3.44 19.53,8.33 28.15,14.64 8.61,6.32 15.7,13.98 21.25,22.98 5.55,9 8.33,18.86 8.33,29.58 0,6.9 -1.82,17.24 -5.46,31.02 -3.64,13.79 -8.42,29.3 -14.36,46.53 -5.93,17.23 -12.54,35.52 -19.82,54.85 -7.27,19.34 -14.64,38.2 -22.11,56.58 -7.47,18.38 -14.55,35.62 -21.25,51.7 -6.71,16.08 -12.16,29.49 -16.37,40.21 10.33,-1.15 21.44,-1.72 33.31,-1.72 15.32,0 30.83,1.34 46.53,4.02 15.7,2.68 29.87,7.18 42.5,13.5 12.64,6.31 22.98,14.93 31.02,25.84 8.04,10.92 12.07,24.61 12.07,41.07 0,10.34 -1.73,21.83 -5.17,34.47 -20.3,-6.13 -39.83,-10.44 -58.59,-12.93 -18.77,-2.48 -36.96,-3.73 -54.57,-3.73 -24.51,0 -47.49,1.82 -68.93,5.46 -21.45,3.64 -41.74,7.75 -60.89,12.35 -8.04,0 -14.55,-2.4 -19.53,-7.18 -4.98,-4.79 -9.09,-10.82 -12.35,-18.1 -3.25,-7.27 -5.65,-14.84 -7.18,-22.69 -1.53,-7.85 -2.68,-15.03 -3.45,-21.54zm511.8 -148.19c6.51,-1.92 12.26,-2.88 17.23,-2.88 6.9,0 13.31,1.25 19.25,3.74 5.93,2.49 11.2,5.74 15.79,9.76 4.6,4.02 8.14,8.62 10.63,13.79 2.49,5.17 3.73,10.63 3.73,16.37 0,2.3 -1.72,6.8 -5.17,13.5 -3.44,6.7 -7.18,14.45 -11.2,23.26 -4.02,8.81 -7.75,18 -11.2,27.57 -3.45,9.58 -5.17,18.58 -5.17,27 0,3.83 2.11,5.74 6.32,5.74 3.06,0 7.08,-1.14 12.06,-3.44 4.98,-2.3 10.05,-5.17 15.22,-8.62 5.17,-3.44 10.25,-7.37 15.23,-11.77 4.97,-4.41 9.19,-8.91 12.63,-13.5l1.15 0c-0.76,12.64 -3.54,25.75 -8.33,39.35 -4.78,13.59 -11.2,25.94 -19.24,37.04 -8.04,11.11 -17.81,20.3 -29.29,27.58 -11.49,7.27 -24.32,10.91 -38.49,10.91 -7.28,0 -13.79,-1.44 -19.53,-4.31 -5.74,-2.87 -10.72,-6.7 -14.93,-11.49 -4.22,-4.78 -7.76,-10.34 -10.63,-16.65 -2.87,-6.32 -5.07,-12.74 -6.61,-19.25 -14.55,17.24 -29.29,29.78 -44.23,37.63 -14.93,7.85 -29.1,11.77 -42.5,11.77 -20.3,0 -37.15,-7.85 -50.55,-23.55 -13.4,-15.7 -20.11,-37.34 -20.11,-64.91 0,-21.82 3.64,-42.5 10.92,-62.03 7.27,-19.53 16.94,-37.63 29.01,-54.28 12.06,-16.66 25.94,-31.69 41.64,-45.1 15.7,-13.4 32.26,-24.79 49.69,-34.17 17.42,-9.39 34.94,-16.57 52.56,-21.54 17.61,-4.98 34.27,-7.47 49.97,-7.47 18,0 32.36,3.73 43.08,11.2 10.72,7.47 16.08,17.71 16.08,30.73 0,13.4 -5.93,27.96 -17.8,43.66 -12.26,-3.45 -23.74,-5.17 -34.47,-5.17 -20.29,0 -39.06,4.69 -56.29,14.07 -17.23,9.38 -32.17,20.58 -44.8,33.6 -12.64,13.02 -22.5,26.52 -29.59,40.5 -7.08,13.98 -10.62,25.37 -10.62,34.18 0,9.57 4.02,14.36 12.06,14.36 7.28,0 16.08,-3.93 26.42,-11.78 10.34,-7.85 20.39,-17.71 30.16,-29.58 9.76,-11.87 18.38,-24.61 25.85,-38.2 7.47,-13.59 12.16,-26.14 14.07,-37.62zm294.1 225.74c-14.94,-3.83 -27.19,-8.14 -36.76,-12.92 -9.58,-4.79 -17.14,-10.06 -22.69,-15.8 -5.56,-5.75 -9.48,-11.68 -11.78,-17.81 -2.3,-6.12 -3.44,-12.44 -3.44,-18.95 0,-8.81 3.15,-22.31 9.47,-40.5 6.32,-18.19 14.27,-38.96 23.84,-62.32 9.57,-23.36 19.82,-48.25 30.73,-74.68 10.92,-26.42 21.16,-52.46 30.73,-78.12 9.58,-25.65 17.52,-49.68 23.84,-72.08 6.32,-22.41 9.48,-41.27 9.48,-56.58 0,-12.64 -2.3,-21.83 -6.89,-27.58 6.12,-0.76 12.06,-1.43 17.8,-2.01 5.75,-0.57 11.49,-0.86 17.23,-0.86 19.92,0 38.78,3.16 56.58,9.48 17.81,6.32 33.03,17.14 45.67,32.45 8.04,9.96 13.21,21.83 15.51,35.62 2.3,13.78 3.54,28.43 3.73,43.94 0.19,15.51 0.39,31.31 0.58,47.39 0.19,16.08 2.2,31.4 6.03,45.95 28.34,-31.4 54.76,-64.91 79.27,-100.52 24.5,-35.61 45.38,-72.76 62.61,-111.44 12.63,2.69 26.23,6.04 40.78,10.06 14.55,4.02 28.05,9.28 40.5,15.79 12.44,6.51 22.69,14.84 30.73,24.99 8.04,10.15 12.06,22.69 12.06,37.62 0,12.64 -3.06,28.05 -9.19,46.24 -6.13,18.19 -13.88,38.01 -23.26,59.46 -9.39,21.44 -19.53,44.13 -30.45,68.06 -10.91,23.94 -21.35,47.97 -31.3,72.09 -9.96,24.13 -18.67,48.06 -26.14,71.8 -7.47,23.74 -12.16,46.15 -14.07,67.21 -2.3,0.38 -4.69,0.67 -7.18,0.86 -2.49,0.19 -5.08,0.29 -7.76,0.29 -9.57,0 -18.95,-1.44 -28.14,-4.31 -9.19,-2.87 -17.33,-6.99 -24.42,-12.35 -7.08,-5.36 -12.73,-11.78 -16.94,-19.24 -4.21,-7.47 -6.32,-15.8 -6.32,-24.99 0,-11.49 3.45,-25.56 10.34,-42.22 6.89,-16.66 14.84,-34.46 23.84,-53.42 9,-18.95 17.9,-38.39 26.71,-58.3 8.81,-19.91 15.12,-39.06 18.95,-57.44 -28.72,27.19 -55.71,56.19 -80.99,87.02 -25.27,30.83 -49.97,62.32 -74.1,94.49 -15.7,-0.38 -28.33,-3.54 -37.91,-9.48 -9.57,-5.93 -17.04,-13.5 -22.4,-22.69 -5.36,-9.19 -9,-19.53 -10.91,-31.01 -1.92,-11.49 -2.88,-22.98 -2.88,-34.47 0,-12.64 0.58,-24.7 1.73,-36.19 1.15,-11.49 1.72,-20.87 1.72,-28.14 0,-4.22 -0.19,-7.09 -0.57,-8.62 -10.73,21.45 -21.64,44.61 -32.74,69.5 -11.11,24.9 -21.45,49.5 -31.02,73.82 -9.58,24.31 -18,47.1 -25.28,68.35 -7.27,21.25 -12.25,38.77 -14.93,52.56zm624.38 -225.74c6.51,-1.92 12.26,-2.88 17.23,-2.88 6.9,0 13.31,1.25 19.25,3.74 5.93,2.49 11.2,5.74 15.79,9.76 4.6,4.02 8.14,8.62 10.63,13.79 2.49,5.17 3.73,10.63 3.73,16.37 0,2.3 -1.72,6.8 -5.17,13.5 -3.44,6.7 -7.18,14.45 -11.2,23.26 -4.02,8.81 -7.75,18 -11.2,27.57 -3.45,9.58 -5.17,18.58 -5.17,27 0,3.83 2.11,5.74 6.32,5.74 3.06,0 7.08,-1.14 12.06,-3.44 4.98,-2.3 10.05,-5.17 15.22,-8.62 5.17,-3.44 10.25,-7.37 15.23,-11.77 4.97,-4.41 9.19,-8.91 12.63,-13.5l1.15 0c-0.76,12.64 -3.54,25.75 -8.33,39.35 -4.78,13.59 -11.2,25.94 -19.24,37.04 -8.04,11.11 -17.81,20.3 -29.29,27.58 -11.49,7.27 -24.32,10.91 -38.49,10.91 -7.28,0 -13.79,-1.44 -19.53,-4.31 -5.74,-2.87 -10.72,-6.7 -14.93,-11.49 -4.22,-4.78 -7.76,-10.34 -10.63,-16.65 -2.87,-6.32 -5.07,-12.74 -6.61,-19.25 -14.55,17.24 -29.29,29.78 -44.23,37.63 -14.93,7.85 -29.1,11.77 -42.5,11.77 -20.3,0 -37.15,-7.85 -50.55,-23.55 -13.4,-15.7 -20.11,-37.34 -20.11,-64.91 0,-21.82 3.64,-42.5 10.92,-62.03 7.27,-19.53 16.94,-37.63 29.01,-54.28 12.06,-16.66 25.94,-31.69 41.64,-45.1 15.7,-13.4 32.26,-24.79 49.69,-34.17 17.42,-9.39 34.94,-16.57 52.56,-21.54 17.61,-4.98 34.27,-7.47 49.97,-7.47 18,0 32.36,3.73 43.08,11.2 10.72,7.47 16.08,17.71 16.08,30.73 0,13.4 -5.93,27.96 -17.8,43.66 -12.26,-3.45 -23.74,-5.17 -34.47,-5.17 -20.29,0 -39.06,4.69 -56.29,14.07 -17.23,9.38 -32.17,20.58 -44.8,33.6 -12.64,13.02 -22.5,26.52 -29.59,40.5 -7.08,13.98 -10.62,25.37 -10.62,34.18 0,9.57 4.02,14.36 12.06,14.36 7.28,0 16.08,-3.93 26.42,-11.78 10.34,-7.85 20.39,-17.71 30.16,-29.58 9.76,-11.87 18.38,-24.61 25.85,-38.2 7.47,-13.59 12.16,-26.14 14.07,-37.62zm67.78 167.15c0,-6.89 2.58,-17.42 7.75,-31.59 5.17,-14.17 11.59,-30.16 19.25,-47.97 7.66,-17.8 16.08,-36.76 25.27,-56.86 9.19,-20.11 17.9,-39.54 26.14,-58.31 8.23,-18.76 15.31,-35.99 21.25,-51.69 5.94,-15.7 9.48,-28.34 10.63,-37.91 9.95,0 18.86,2.01 26.71,6.03 7.85,4.02 14.55,9.38 20.1,16.08 5.55,6.7 9.86,14.55 12.92,23.55 3.07,9 4.79,18.48 5.17,28.44 4.98,-3.45 10.82,-8.52 17.52,-15.23 6.71,-6.7 14.46,-13.3 23.27,-19.81 8.81,-6.51 18.47,-12.16 29.01,-16.95 10.53,-4.79 22.11,-7.18 34.75,-7.18 10.34,0 18.19,3.93 23.55,11.78 5.36,7.85 8.04,17.9 8.04,30.15 0,10.34 -1.92,21.35 -5.74,33.03 -3.83,11.68 -9.77,23.07 -17.81,34.18 -8.04,11.1 -18.1,21.25 -30.16,30.44 -12.06,9.19 -26.13,16.28 -42.22,21.26 6.51,-8.81 11.49,-19.06 14.94,-30.73 3.44,-11.68 5.17,-21.35 5.17,-29.01 0,-9.96 -4.6,-14.94 -13.79,-14.94 -4.98,0 -10.72,1.34 -17.23,4.02 -6.51,2.68 -13.31,6.51 -20.39,11.49 -7.09,4.98 -14.08,10.92 -20.97,17.81 -6.89,6.89 -13.21,14.55 -18.95,22.97 -5.36,7.66 -11.4,18.86 -18.1,33.61 -6.7,14.74 -13.4,30.54 -20.1,47.39 -6.7,16.85 -13.02,33.5 -18.96,49.97 -5.93,16.47 -10.43,30.44 -13.5,41.93 -6.51,0 -14.07,-0.57 -22.69,-1.72 -8.61,-1.15 -16.65,-3.45 -24.12,-6.89 -7.47,-3.45 -13.79,-8.14 -18.96,-14.08 -5.17,-5.93 -7.75,-13.69 -7.75,-23.26zm414.73 -52.85c-3.07,-6.12 -5.17,-12.15 -6.32,-18.09 -1.15,-5.94 -1.72,-11.58 -1.72,-16.95 0,-11.87 1.81,-21.25 5.45,-28.14 3.64,-6.89 8.81,-11.87 15.51,-14.94 6.7,-3.06 14.84,-4.97 24.41,-5.74 9.58,-0.77 20.3,-1.15 32.17,-1.15 12.64,0 26.04,0.1 40.21,0.29 14.17,0.19 27.95,0.29 41.36,0.29 17.23,0 32.55,-0.39 45.95,-1.15 13.4,-0.77 22.78,-2.68 28.15,-5.75 -1.54,18 -3.45,32.46 -5.75,43.37 -2.3,10.91 -5.46,19.34 -9.48,25.27 -4.02,5.94 -9,9.87 -14.93,11.78 -5.94,1.91 -13.5,2.87 -22.69,2.87 -8.81,0 -18.86,-0.38 -30.16,-1.15 -11.29,-0.76 -24.41,-1.15 -39.34,-1.15 -13.79,0 -29.2,0.67 -46.24,2.01 -17.04,1.35 -35.9,4.12 -56.58,8.33zm539.95 -85.01c0,2.68 3.25,4.02 9.76,4.02 5.36,0 12.93,-0.29 22.69,-0.86 9.77,-0.57 23.07,-0.86 39.92,-0.86 1.53,0 4.02,-4.79 7.47,-14.36 3.45,-9.57 6.99,-20.49 10.63,-32.74 3.63,-12.26 6.79,-23.84 9.47,-34.75 2.68,-10.92 4.02,-17.91 4.02,-20.97 0,-0.77 -1.91,-1.15 -5.74,-1.15 -4.6,2.3 -12.35,7.85 -23.26,16.66 -10.92,8.81 -21.93,18.48 -33.03,29.01 -11.11,10.53 -20.87,21.06 -29.3,31.59 -8.42,10.53 -12.63,18.67 -12.63,24.41zm150.49 190.13c-19.53,0 -35.32,-1.82 -47.39,-5.46 -12.06,-3.63 -21.54,-9.47 -28.43,-17.52 -6.89,-8.04 -11.58,-18.38 -14.07,-31.01 -2.49,-12.64 -3.74,-28.15 -3.74,-46.53 0,-3.06 -2.39,-4.88 -7.18,-5.46 -4.78,-0.57 -10.24,-0.86 -16.37,-0.86 -8.04,0 -16.66,0 -25.85,0 -9.19,0 -18.28,0.19 -27.28,0.58 -9,0.38 -17.52,1.05 -25.56,2.01 -8.04,0.95 -15.13,2.2 -21.26,3.73 -5.74,8.42 -10.62,17.33 -14.64,26.71 -4.02,9.38 -7.47,18.48 -10.34,27.28 -2.87,8.81 -5.27,16.95 -7.18,24.42 -1.92,7.46 -3.45,13.69 -4.6,18.66 -9.57,0 -19.81,-2.1 -30.73,-6.31 -10.91,-4.22 -21.06,-9.86 -30.44,-16.95 -9.38,-7.08 -17.14,-15.41 -23.27,-24.99 -6.12,-9.57 -9.19,-19.72 -9.19,-30.44 0,-14.93 4.41,-31.11 13.21,-48.54 8.81,-17.42 20.3,-35.52 34.47,-54.28 14.17,-18.76 30.54,-37.81 49.11,-57.15 18.57,-19.34 37.53,-38.49 56.87,-57.44 19.34,-18.96 38.39,-37.44 57.15,-55.43 18.77,-18 35.81,-34.95 51.12,-50.84 15.32,-15.89 27.96,-30.44 37.92,-43.65 9.95,-13.22 15.7,-24.42 17.23,-33.61 1.53,0 3.06,-0.09 4.59,-0.29 1.53,-0.19 3.07,-0.28 4.6,-0.28 12.25,0 24.89,1.82 37.91,5.45 13.02,3.64 24.79,9 35.33,16.09 10.53,7.08 19.14,15.7 25.84,25.85 6.71,10.14 10.06,21.73 10.06,34.75 0,13.78 -3.16,30.73 -9.48,50.83 -6.32,20.11 -14.07,45.76 -23.27,76.97 -9.19,31.21 -18.85,69.03 -29,113.45 -10.15,44.42 -18.86,97.84 -26.14,160.26zm344.07 -193c-9.19,22.21 -18.38,45.09 -27.57,68.64 -9.19,23.55 -18.86,46.62 -29.01,69.22 -10.15,22.59 -21.06,43.94 -32.74,64.04 -11.68,20.11 -24.7,37.72 -39.06,52.85 -14.36,15.13 -30.45,27.09 -48.25,35.9 -17.81,8.81 -37.63,13.21 -59.45,13.21 -14.56,0 -27.77,-2.77 -39.64,-8.33 -11.87,-5.55 -22.02,-12.92 -30.44,-22.11 -8.43,-9.19 -14.94,-19.72 -19.53,-31.59 -4.6,-11.88 -6.89,-24.32 -6.89,-37.34 0,-7.28 1.14,-14.74 3.44,-22.4 8.81,19.53 20.2,34.37 34.18,44.51 13.98,10.15 28.82,15.23 44.52,15.23 9.95,0 19.91,-2.21 29.87,-6.61 9.95,-4.4 19.43,-11.3 28.43,-20.68 9,-9.38 17.33,-21.25 24.99,-35.61 7.65,-14.36 14.16,-31.5 19.53,-51.41 -14.56,18.38 -29.59,31.97 -45.1,40.78 -15.5,8.81 -29.96,13.21 -43.36,13.21 -16.09,0 -29.3,-5.93 -39.64,-17.8 -10.34,-11.88 -15.51,-29.3 -15.51,-52.28 0,-16.08 3.74,-34.36 11.2,-54.85 7.47,-20.49 15.7,-41.65 24.7,-63.47 9,-21.83 17.43,-43.18 25.28,-64.05 7.85,-20.87 12.16,-39.73 12.92,-56.58 23.36,0 42.41,3.06 57.16,9.19 14.74,6.13 22.11,15.89 22.11,29.3 0,9.95 -3.06,22.21 -9.19,36.76 -6.13,14.55 -12.92,29.39 -20.39,44.51 -7.47,15.13 -14.27,29.3 -20.39,42.51 -6.13,13.21 -9.19,23.46 -9.19,30.73 0,2.3 0.95,4.02 2.87,5.17 1.91,1.15 4.02,1.72 6.32,1.72 6.12,0 13.78,-3.44 22.97,-10.33 9.19,-6.9 18.96,-15.99 29.3,-27.29 10.34,-11.3 20.77,-24.03 31.3,-38.2 10.53,-14.17 20.2,-28.53 29.01,-43.08 8.81,-14.55 16.28,-28.53 22.4,-41.93 6.13,-13.4 9.77,-24.89 10.92,-34.46 8.04,0 16.37,1.05 24.98,3.15 8.62,2.11 16.47,5.17 23.55,9.2 7.09,4.02 12.93,9.19 17.52,15.5 4.6,6.32 6.9,13.5 6.9,21.54 0,3.45 -1.06,7.95 -3.16,13.5 -2.11,5.56 -4.79,11.59 -8.04,18.1 -3.26,6.51 -6.71,13.4 -10.34,20.68 -3.64,7.27 -6.8,14.36 -9.48,21.25zm211.95 -26.42c6.51,-1.92 12.26,-2.88 17.23,-2.88 6.9,0 13.31,1.25 19.25,3.74 5.93,2.49 11.2,5.74 15.79,9.76 4.6,4.02 8.14,8.62 10.63,13.79 2.49,5.17 3.73,10.63 3.73,16.37 0,2.3 -1.72,6.8 -5.17,13.5 -3.44,6.7 -7.18,14.45 -11.2,23.26 -4.02,8.81 -7.75,18 -11.2,27.57 -3.45,9.58 -5.17,18.58 -5.17,27 0,3.83 2.11,5.74 6.32,5.74 3.06,0 7.08,-1.14 12.06,-3.44 4.98,-2.3 10.05,-5.17 15.22,-8.62 5.17,-3.44 10.25,-7.37 15.23,-11.77 4.97,-4.41 9.19,-8.91 12.63,-13.5l1.15 0c-0.76,12.64 -3.54,25.75 -8.33,39.35 -4.78,13.59 -11.2,25.94 -19.24,37.04 -8.04,11.11 -17.81,20.3 -29.29,27.58 -11.49,7.27 -24.32,10.91 -38.49,10.91 -7.28,0 -13.79,-1.44 -19.53,-4.31 -5.74,-2.87 -10.72,-6.7 -14.93,-11.49 -4.22,-4.78 -7.76,-10.34 -10.63,-16.65 -2.87,-6.32 -5.07,-12.74 -6.61,-19.25 -14.55,17.24 -29.29,29.78 -44.23,37.63 -14.93,7.85 -29.1,11.77 -42.5,11.77 -20.3,0 -37.15,-7.85 -50.55,-23.55 -13.4,-15.7 -20.11,-37.34 -20.11,-64.91 0,-21.82 3.64,-42.5 10.92,-62.03 7.27,-19.53 16.94,-37.63 29.01,-54.28 12.06,-16.66 25.94,-31.69 41.64,-45.1 15.7,-13.4 32.26,-24.79 49.69,-34.17 17.42,-9.39 34.94,-16.57 52.56,-21.54 17.61,-4.98 34.27,-7.47 49.97,-7.47 18,0 32.36,3.73 43.08,11.2 10.72,7.47 16.08,17.71 16.08,30.73 0,13.4 -5.93,27.96 -17.8,43.66 -12.26,-3.45 -23.74,-5.17 -34.47,-5.17 -20.29,0 -39.06,4.69 -56.29,14.07 -17.23,9.38 -32.17,20.58 -44.8,33.6 -12.64,13.02 -22.5,26.52 -29.59,40.5 -7.08,13.98 -10.62,25.37 -10.62,34.18 0,9.57 4.02,14.36 12.06,14.36 7.28,0 16.08,-3.93 26.42,-11.78 10.34,-7.85 20.39,-17.71 30.16,-29.58 9.76,-11.87 18.38,-24.61 25.85,-38.2 7.47,-13.59 12.16,-26.14 14.07,-37.62zm334.31 14.93c-5.36,-13.78 -11.68,-23.65 -18.96,-29.58 -7.27,-5.94 -15.12,-8.9 -23.55,-8.9 -11.1,0 -22.78,4.49 -35.04,13.49 -12.25,9 -23.55,20.11 -33.89,33.32 -10.34,13.21 -18.95,27.09 -25.85,41.64 -6.89,14.56 -10.34,27.58 -10.34,39.06 0,8.81 2.49,15.99 7.47,21.54 4.98,5.56 13.02,8.33 24.13,8.33 9.19,0 19.81,-2.1 31.88,-6.31 12.06,-4.22 23.93,-9.77 35.61,-16.66 11.68,-6.9 22.4,-14.55 32.17,-22.98 9.76,-8.42 16.75,-16.85 20.96,-25.27 -3.44,18.38 -9.19,36.76 -17.23,55.14 -8.04,18.38 -18.38,34.94 -31.02,49.69 -12.63,14.74 -27.67,26.61 -45.09,35.61 -17.42,9 -37.24,13.5 -59.45,13.5 -16.85,0 -31.21,-2.11 -43.08,-6.32 -11.87,-4.21 -21.64,-9.96 -29.3,-17.23 -7.65,-7.28 -13.21,-15.89 -16.65,-25.85 -3.45,-9.96 -5.17,-20.87 -5.17,-32.74 0,-16.09 2.96,-33.22 8.9,-51.41 5.94,-18.19 13.98,-36.38 24.13,-54.57 10.14,-18.19 22.21,-35.52 36.18,-51.98 13.98,-16.47 28.91,-31.12 44.81,-43.95 15.89,-12.83 32.55,-22.97 49.97,-30.44 17.42,-7.47 34.75,-11.2 51.98,-11.2 22.22,0 38.3,4.79 48.26,14.36 9.95,9.57 14.93,21.44 14.93,35.61 0,11.87 -3.16,24.41 -9.48,37.63 -6.32,13.21 -15.41,25.37 -27.28,36.47zm207.94 205.07c-8.43,0 -15.99,-2.02 -22.69,-6.04 -6.71,-4.02 -12.45,-9.47 -17.24,-16.37 -4.78,-6.89 -8.61,-15.03 -11.48,-24.41 -2.88,-9.38 -4.7,-19.24 -5.46,-29.58 -15.7,26.42 -31.69,44.99 -47.96,55.72 -16.28,10.72 -31.69,16.08 -46.24,16.08 -8.81,0 -17.05,-1.72 -24.7,-5.17 -7.66,-3.45 -14.27,-8.04 -19.82,-13.79 -5.55,-5.74 -9.86,-12.44 -12.93,-20.1 -3.06,-7.66 -4.59,-15.7 -4.59,-24.13 0,-11.1 2.11,-23.74 6.32,-37.91 4.21,-14.16 9.38,-29.1 15.51,-44.8 6.12,-15.7 12.83,-31.69 20.1,-47.96 7.28,-16.28 14.07,-31.98 20.39,-47.1 6.32,-15.13 11.68,-29.49 16.09,-43.09 4.4,-13.59 6.79,-25.37 7.18,-35.32 8.04,0 16.56,1.05 25.56,3.16 9,2.1 17.23,5.07 24.7,8.9 7.46,3.83 13.69,8.43 18.67,13.79 4.97,5.36 7.46,11.29 7.46,17.8 0,6.51 -1.62,14.17 -4.88,22.98 -3.25,8.81 -7.47,18.28 -12.64,28.43 -5.17,10.15 -10.62,20.39 -16.37,30.73 -5.74,10.34 -11.2,20.4 -16.37,30.16 -5.17,9.77 -9.38,18.76 -12.64,27 -3.25,8.23 -4.88,15.03 -4.88,20.39 0,2.68 0.39,4.98 1.15,6.89 0.77,1.92 2.49,3.64 5.17,5.17 8.04,0 15.99,-2.2 23.84,-6.6 7.85,-4.41 15.32,-9.86 22.4,-16.37 7.09,-6.51 13.69,-13.5 19.82,-20.97 6.13,-7.47 11.49,-14.27 16.08,-20.39 6.13,-8.04 13.12,-19.05 20.97,-33.03 7.85,-13.98 15.51,-28.43 22.97,-43.37 7.47,-14.93 13.98,-29.2 19.53,-42.79 5.56,-13.6 8.91,-24.03 10.06,-31.31 4.97,0.39 11.48,1.73 19.53,4.02 8.04,2.3 15.79,5.46 23.26,9.48 7.47,4.02 13.88,8.71 19.24,14.07 5.36,5.37 8.04,11.3 8.04,17.81 0,8.04 -3.73,19.24 -11.2,33.6 -7.46,14.36 -15.79,29.97 -24.98,46.82 -9.19,16.85 -17.52,34.08 -24.99,51.7 -7.47,17.61 -11.2,33.69 -11.2,48.25 0,7.65 1.24,13.02 3.73,16.08 2.49,3.06 5.84,4.59 10.05,4.59 5.37,0 11.68,-2.01 18.96,-6.03 7.28,-4.02 14.46,-8.8 21.54,-14.36 7.08,-5.55 13.5,-11.1 19.24,-16.66 5.75,-5.55 9.77,-9.86 12.07,-12.92 -5.37,13.4 -12.35,27.57 -20.97,42.51 -8.62,14.93 -18.48,28.62 -29.58,41.07 -11.11,12.44 -23.17,22.78 -36.19,31.02 -13.02,8.23 -26.23,12.35 -39.63,12.35zm332.58 -205.07c-5.36,-13.78 -11.68,-23.65 -18.96,-29.58 -7.27,-5.94 -15.12,-8.9 -23.55,-8.9 -11.1,0 -22.78,4.49 -35.04,13.49 -12.25,9 -23.55,20.11 -33.89,33.32 -10.34,13.21 -18.95,27.09 -25.85,41.64 -6.89,14.56 -10.34,27.58 -10.34,39.06 0,8.81 2.49,15.99 7.47,21.54 4.98,5.56 13.02,8.33 24.13,8.33 9.19,0 19.81,-2.1 31.88,-6.31 12.06,-4.22 23.93,-9.77 35.61,-16.66 11.68,-6.9 22.4,-14.55 32.17,-22.98 9.76,-8.42 16.75,-16.85 20.96,-25.27 -3.44,18.38 -9.19,36.76 -17.23,55.14 -8.04,18.38 -18.38,34.94 -31.02,49.69 -12.63,14.74 -27.67,26.61 -45.09,35.61 -17.42,9 -37.24,13.5 -59.45,13.5 -16.85,0 -31.21,-2.11 -43.08,-6.32 -11.87,-4.21 -21.64,-9.96 -29.3,-17.23 -7.65,-7.28 -13.21,-15.89 -16.65,-25.85 -3.45,-9.96 -5.17,-20.87 -5.17,-32.74 0,-16.09 2.96,-33.22 8.9,-51.41 5.94,-18.19 13.98,-36.38 24.13,-54.57 10.14,-18.19 22.21,-35.52 36.18,-51.98 13.98,-16.47 28.91,-31.12 44.81,-43.95 15.89,-12.83 32.55,-22.97 49.97,-30.44 17.42,-7.47 34.75,-11.2 51.98,-11.2 22.22,0 38.3,4.79 48.26,14.36 9.95,9.57 14.93,21.44 14.93,35.61 0,11.87 -3.16,24.41 -9.48,37.63 -6.32,13.21 -15.41,25.37 -27.28,36.47z"/>
      <path class="fil0" d="M10030.88 4731.55c0,11.48 -3.64,24.41 -10.92,38.77 -7.27,14.36 -15.31,28.81 -24.12,43.37 -8.81,14.55 -16.85,28.91 -24.13,43.08 -7.27,14.17 -10.91,26.8 -10.91,37.91 0,9.19 4.21,13.78 12.64,13.78 4.21,0 9.09,-1.05 14.64,-3.16 5.56,-2.1 11.11,-4.59 16.66,-7.46 5.55,-2.87 10.72,-5.94 15.51,-9.19 4.79,-3.26 8.71,-6.03 11.78,-8.33 -1.92,12.25 -6.23,25.46 -12.93,39.63 -6.7,14.17 -15.22,27.29 -25.56,39.35 -10.34,12.06 -21.92,22.21 -34.75,30.44 -12.83,8.24 -26.33,12.35 -40.5,12.35 -12.25,0 -22.02,-1.82 -29.29,-5.45 -7.28,-3.64 -12.83,-8.43 -16.66,-14.36 -3.83,-5.94 -6.41,-12.64 -7.75,-20.11 -1.34,-7.47 -2.01,-15.03 -2.01,-22.69 0,-14.17 2.48,-29.68 7.46,-46.52 4.98,-16.85 10.92,-33.32 17.81,-49.4 6.89,-16.09 14.07,-31.21 21.54,-45.38 7.47,-14.17 13.69,-25.85 18.67,-35.04 -11.49,0 -24.7,6.22 -39.64,18.67 -14.93,12.44 -29.87,29.2 -44.8,50.26 -14.93,21.06 -29.01,45.57 -42.22,73.52 -13.21,27.96 -23.84,57.44 -31.88,88.46 -19.53,0 -34.94,-4.98 -46.24,-14.93 -11.3,-9.96 -16.94,-24.7 -16.94,-44.23 0,-11.49 3.25,-26.9 9.76,-46.24 6.51,-19.34 14.74,-40.88 24.7,-64.62 9.96,-23.75 20.97,-48.92 33.03,-75.54 12.06,-26.61 23.74,-52.84 35.04,-78.69 11.29,-25.85 21.44,-50.46 30.44,-73.81 9,-23.36 15.42,-43.85 19.24,-61.47 5.37,-0.76 10.54,-1.43 15.51,-2.01 4.98,-0.57 9.96,-0.86 14.94,-0.86 6.51,0 12.73,0.58 18.67,1.72 5.93,1.15 11.1,3.26 15.51,6.32 4.4,3.07 7.94,7.18 10.62,12.35 2.68,5.17 4.02,11.78 4.02,19.82 0,10.34 -3.16,22.78 -9.47,37.34 -6.32,14.55 -13.5,29.67 -21.55,45.37 -8.04,15.71 -15.6,31.21 -22.68,46.53 -7.09,15.32 -11.4,28.72 -12.93,40.21 3.07,-6.89 8.43,-13.69 16.09,-20.39 7.65,-6.7 16.56,-12.64 26.71,-17.81 10.14,-5.17 20.96,-9.28 32.45,-12.35 11.49,-3.06 22.4,-4.59 32.74,-4.59 14.55,0 26.81,3.35 36.76,10.05 9.96,6.7 14.94,18.48 14.94,35.33zm197.02 53.42c0,-12.64 -3.55,-21.93 -10.63,-27.86 -7.08,-5.94 -15.6,-8.91 -25.56,-8.91 -8.43,0 -17.33,1.82 -26.71,5.46 -9.38,3.64 -18.29,8.9 -26.71,15.8l3.45 0c9.95,0 19.72,2.1 29.29,6.32 9.57,4.21 18.96,11.1 28.15,20.67 -11.49,3.45 -21.93,8.91 -31.31,16.37 -9.38,7.47 -17.42,15.8 -24.12,24.99 -6.71,9.19 -11.97,18.67 -15.8,28.43 -3.83,9.77 -5.74,18.48 -5.74,26.14 0,6.51 1.53,11.87 4.59,16.08 3.06,4.22 7.85,6.32 14.36,6.32 9.19,0 18.86,-4.5 29.01,-13.5 10.15,-9 19.53,-20.1 28.14,-33.31 8.62,-13.21 15.71,-27.29 21.26,-42.22 5.55,-14.94 8.33,-28.53 8.33,-40.78zm-191.86 128.66c0,-16.46 2.11,-32.16 6.32,-47.1 4.21,-14.93 9.96,-28.53 17.23,-40.78l0 -5.17c0,-21.06 5.37,-40.69 16.09,-58.88 10.72,-18.19 24.41,-33.89 41.07,-47.1 16.66,-13.21 35.13,-23.65 55.43,-31.3 20.29,-7.66 39.82,-11.49 58.59,-11.49 11.87,0 23.17,1.72 33.89,5.17 10.72,3.44 20.01,8.8 27.86,16.08 7.85,7.28 14.07,16.66 18.67,28.15 4.59,11.48 6.89,25.27 6.89,41.35 0,24.51 -4.88,50.46 -14.65,77.84 -9.76,27.38 -23.36,52.56 -40.78,75.53 -17.43,22.98 -38.1,42.03 -62.04,57.16 -23.93,15.12 -49.88,22.68 -77.83,22.68 -10.72,0 -21.25,-2.1 -31.59,-6.31 -10.34,-4.22 -19.63,-9.96 -27.86,-17.24 -8.23,-7.27 -14.84,-15.98 -19.82,-26.13 -4.98,-10.15 -7.47,-20.97 -7.47,-32.46z"/>
     </g>
     <g>
      <path class="fil0" d="M4428.2 1529.48c0,2.33 2.82,3.49 8.46,3.49 4.65,0 11.21,-0.25 19.67,-0.75 8.47,-0.5 20,-0.74 34.61,-0.74 1.33,0 3.49,-4.15 6.47,-12.45 2.99,-8.3 6.06,-17.76 9.22,-28.39 3.15,-10.62 5.89,-20.66 8.21,-30.12 2.33,-9.46 3.49,-15.52 3.49,-18.18 0,-0.66 -1.66,-0.99 -4.98,-0.99 -3.98,1.99 -10.71,6.8 -20.17,14.44 -9.46,7.63 -19,16.01 -28.63,25.14 -9.63,9.13 -18.09,18.26 -25.4,27.39 -7.3,9.13 -10.95,16.18 -10.95,21.16zm130.46 164.83c-16.93,0 -30.62,-1.58 -41.08,-4.73 -10.46,-3.16 -18.67,-8.22 -24.65,-15.19 -5.97,-6.97 -10.04,-15.94 -12.2,-26.89 -2.15,-10.96 -3.23,-24.4 -3.23,-40.34 0,-2.65 -2.08,-4.23 -6.23,-4.73 -4.15,-0.49 -8.88,-0.74 -14.19,-0.74 -6.97,0 -14.44,0 -22.41,0 -7.96,0 -15.85,0.16 -23.65,0.49 -7.8,0.34 -15.19,0.92 -22.16,1.75 -6.97,0.83 -13.11,1.91 -18.42,3.23 -4.98,7.31 -9.22,15.03 -12.7,23.16 -3.49,8.13 -6.47,16.02 -8.96,23.65 -2.49,7.64 -4.57,14.69 -6.23,21.16 -1.66,6.48 -2.99,11.87 -3.98,16.19 -8.3,0 -17.18,-1.83 -26.64,-5.48 -9.46,-3.65 -18.26,-8.55 -26.39,-14.69 -8.14,-6.14 -14.86,-13.36 -20.17,-21.66 -5.31,-8.3 -7.97,-17.1 -7.97,-26.39 0,-12.95 3.82,-26.97 11.46,-42.08 7.63,-15.1 17.59,-30.79 29.87,-47.05 12.28,-16.27 26.48,-32.79 42.58,-49.55 16.1,-16.76 32.53,-33.36 49.29,-49.8 16.77,-16.43 33.28,-32.45 49.55,-48.05 16.27,-15.6 31.04,-30.29 44.32,-44.07 13.28,-13.77 24.23,-26.39 32.86,-37.84 8.63,-11.45 13.61,-21.16 14.94,-29.13 1.33,0 2.66,-0.08 3.98,-0.25 1.33,-0.17 2.66,-0.25 3.99,-0.25 10.62,0 21.58,1.58 32.86,4.73 11.29,3.16 21.5,7.8 30.63,13.94 9.13,6.15 16.59,13.62 22.4,22.41 5.81,8.8 8.72,18.84 8.72,30.13 0,11.95 -2.74,26.64 -8.22,44.07 -5.48,17.43 -12.2,39.67 -20.16,66.72 -7.97,27.06 -16.35,59.84 -25.15,98.35 -8.8,38.51 -16.35,84.82 -22.66,138.93zm32.37 -68.22c0,-10.63 3.07,-20.34 9.21,-29.13 6.14,-8.8 13.03,-16.68 20.67,-23.66 3.98,8.97 9.21,16.6 15.68,22.91 6.48,6.31 13.61,11.37 21.42,15.19 7.8,3.81 15.76,6.64 23.9,8.46 8.13,1.83 16.01,2.74 23.65,2.74 11.95,0 22.16,-1.91 30.62,-5.73 8.47,-3.81 12.7,-9.04 12.7,-15.68 0,-3.65 -2.82,-6.56 -8.46,-8.72 -5.65,-2.15 -12.7,-4.14 -21.17,-5.97 -8.46,-1.83 -17.59,-3.98 -27.38,-6.47 -9.8,-2.49 -18.93,-5.65 -27.39,-9.46 -8.47,-3.82 -15.52,-8.64 -21.16,-14.45 -5.65,-5.8 -8.47,-13.36 -8.47,-22.65 0,-15.6 4.73,-30.46 14.19,-44.57 9.46,-14.11 21.41,-26.56 35.85,-37.34 14.44,-10.79 30.46,-19.34 48.06,-25.65 17.59,-6.31 34.52,-9.46 50.79,-9.46 8.96,0 16.43,1.24 22.41,3.73 5.97,2.49 10.87,5.98 14.68,10.46 3.82,4.48 6.56,9.71 8.22,15.69 1.66,5.97 2.49,12.28 2.49,18.92 0,11.29 -1.91,22.99 -5.73,35.1 -3.81,12.12 -8.54,23.16 -14.19,33.12 -3.98,-14.28 -10.04,-24.15 -18.17,-29.63 -8.14,-5.48 -16.52,-8.22 -25.15,-8.22 -5.64,0 -11.04,0.83 -16.18,2.49 -5.15,1.66 -9.71,3.82 -13.7,6.48 -3.98,2.65 -7.22,5.47 -9.71,8.46 -2.49,2.99 -3.73,5.98 -3.73,8.96 0,5.32 2.24,9.55 6.72,12.7 4.48,3.16 10.04,5.81 16.68,7.97 6.64,2.16 13.86,4.32 21.66,6.47 7.8,2.16 15.03,5.31 21.66,9.46 6.64,4.15 12.2,9.47 16.69,15.94 4.48,6.47 6.72,15.19 6.72,26.14 0,14.28 -4.07,26.97 -12.2,38.09 -8.13,11.13 -18.59,20.59 -31.37,28.39 -12.78,7.8 -27.06,13.77 -42.83,17.92 -15.76,4.15 -31.45,6.23 -47.05,6.23 -11.95,0 -23.41,-1.25 -34.36,-3.74 -10.96,-2.49 -20.58,-6.39 -28.88,-11.7 -8.3,-5.31 -14.94,-12.12 -19.92,-20.41 -4.98,-8.3 -7.47,-18.1 -7.47,-29.38zm404.84 -117.52c0,-10.95 -3.07,-19 -9.22,-24.15 -6.14,-5.15 -13.52,-7.72 -22.15,-7.72 -7.31,0 -15.03,1.58 -23.16,4.73 -8.13,3.16 -15.85,7.72 -23.15,13.7l2.98 0c8.63,0 17.1,1.82 25.4,5.47 8.3,3.65 16.43,9.63 24.4,17.93 -9.96,2.99 -19.01,7.72 -27.14,14.19 -8.13,6.47 -15.1,13.69 -20.91,21.66 -5.81,7.97 -10.38,16.19 -13.7,24.65 -3.32,8.47 -4.98,16.02 -4.98,22.66 0,5.64 1.33,10.29 3.99,13.94 2.65,3.65 6.8,5.48 12.45,5.48 7.96,0 16.35,-3.9 25.14,-11.7 8.8,-7.81 16.93,-17.43 24.4,-28.89 7.47,-11.45 13.61,-23.65 18.43,-36.6 4.81,-12.94 7.22,-24.73 7.22,-35.35zm-166.32 111.54c0,-14.27 1.83,-27.88 5.48,-40.83 3.65,-12.95 8.63,-24.73 14.94,-35.36l0 -4.48c0,-18.25 4.64,-35.27 13.94,-51.04 9.29,-15.77 21.16,-29.38 35.6,-40.83 14.44,-11.45 30.46,-20.5 48.06,-27.14 17.59,-6.64 34.52,-9.96 50.79,-9.96 10.29,0 20.08,1.5 29.38,4.49 9.29,2.98 17.34,7.63 24.15,13.94 6.8,6.31 12.2,14.44 16.18,24.4 3.98,9.96 5.97,21.91 5.97,35.85 0,21.25 -4.23,43.74 -12.69,67.47 -8.47,23.74 -20.25,45.56 -35.36,65.48 -15.1,19.92 -33.03,36.44 -53.78,49.55 -20.74,13.11 -43.23,19.67 -67.47,19.67 -9.29,0 -18.42,-1.83 -27.39,-5.48 -8.96,-3.65 -17.01,-8.63 -24.15,-14.94 -7.13,-6.31 -12.86,-13.86 -17.18,-22.65 -4.31,-8.8 -6.47,-18.18 -6.47,-28.14zm442.68 -103.07c-4.64,-11.96 -10.12,-20.5 -16.43,-25.65 -6.31,-5.14 -13.11,-7.72 -20.42,-7.72 -9.62,0 -19.75,3.9 -30.37,11.7 -10.62,7.81 -20.42,17.43 -29.38,28.89 -8.96,11.45 -16.43,23.48 -22.41,36.1 -5.97,12.61 -8.96,23.9 -8.96,33.86 0,7.63 2.16,13.86 6.47,18.67 4.32,4.81 11.29,7.22 20.92,7.22 7.96,0 17.18,-1.82 27.63,-5.48 10.46,-3.65 20.75,-8.46 30.88,-14.44 10.12,-5.97 19.42,-12.61 27.88,-19.91 8.47,-7.31 14.52,-14.61 18.18,-21.91 -2.99,15.93 -7.97,31.86 -14.94,47.8 -6.97,15.93 -15.94,30.29 -26.89,43.07 -10.96,12.78 -23.99,23.07 -39.09,30.87 -15.11,7.81 -32.28,11.71 -51.54,11.71 -14.61,0 -27.05,-1.83 -37.34,-5.48 -10.3,-3.65 -18.76,-8.63 -25.4,-14.94 -6.64,-6.31 -11.45,-13.78 -14.44,-22.41 -2.99,-8.63 -4.48,-18.09 -4.48,-28.38 0,-13.94 2.57,-28.8 7.72,-44.57 5.14,-15.77 12.11,-31.53 20.91,-47.3 8.8,-15.77 19.25,-30.79 31.37,-45.07 12.12,-14.27 25.06,-26.97 38.84,-38.09 13.78,-11.12 28.22,-19.92 43.32,-26.39 15.11,-6.48 30.13,-9.71 45.07,-9.71 19.25,0 33.19,4.15 41.82,12.45 8.64,8.3 12.95,18.59 12.95,30.87 0,10.29 -2.74,21.16 -8.21,32.62 -5.48,11.45 -13.37,21.99 -23.66,31.62zm0.5 109.05c0,-9.96 2.91,-22.74 8.72,-38.35 5.81,-15.6 12.86,-32.61 21.16,-51.04 8.3,-18.42 17.01,-37.51 26.14,-57.26 9.13,-19.75 17.18,-38.59 24.15,-56.52 1.66,0 3.41,-0.08 5.23,-0.25 1.83,-0.16 3.57,-0.25 5.23,-0.25 15.6,0 28.47,2.25 38.59,6.73 10.13,4.48 15.19,12.03 15.19,22.65 0,3.99 -1.74,10.05 -5.23,18.18 -3.48,8.13 -7.8,17.51 -12.95,28.13 -5.14,10.63 -10.78,21.75 -16.93,33.37 -6.14,11.61 -11.78,22.9 -16.93,33.86 -5.14,10.95 -9.46,20.99 -12.94,30.12 -3.49,9.13 -5.23,16.19 -5.23,21.17 0,6.63 2.99,9.95 8.96,9.95 4.65,0 10.54,-1.74 17.68,-5.22 7.14,-3.49 14.52,-7.81 22.16,-12.95 7.63,-5.15 15.02,-10.54 22.16,-16.18 7.13,-5.65 13.03,-10.63 17.67,-14.94 -2.65,10.95 -6.97,23.24 -12.94,36.85 -5.98,13.61 -13.53,26.22 -22.66,37.84 -9.13,11.62 -19.59,21.41 -31.37,29.38 -11.79,7.97 -24.48,11.95 -38.09,11.95 -8.97,0 -17.02,-1.91 -24.15,-5.73 -7.14,-3.81 -13.2,-8.88 -18.18,-15.18 -4.98,-6.31 -8.8,-13.53 -11.45,-21.66 -2.66,-8.14 -3.99,-16.35 -3.99,-24.65zm157.36 -235.53c-9.63,1.99 -17.93,2.98 -24.9,2.98 -11.62,0 -19.84,-2.32 -24.65,-6.97 -4.81,-4.64 -7.22,-10.79 -7.22,-18.42 0,-7.64 2.16,-16.02 6.47,-25.15 4.32,-9.13 9.8,-17.84 16.44,-26.14 18.59,0 31.86,2.41 39.83,7.22 7.97,4.81 11.95,12.03 11.95,21.66 0,11.95 -5.97,26.89 -17.92,44.82zm173.78 113.53c5.65,-1.66 10.63,-2.49 14.94,-2.49 5.98,0 11.54,1.08 16.68,3.24 5.15,2.15 9.71,4.98 13.7,8.46 3.98,3.49 7.05,7.47 9.21,11.95 2.16,4.48 3.24,9.21 3.24,14.19 0,1.99 -1.5,5.9 -4.49,11.71 -2.98,5.8 -6.22,12.53 -9.71,20.16 -3.48,7.64 -6.72,15.6 -9.71,23.9 -2.98,8.3 -4.48,16.1 -4.48,23.41 0,3.32 1.83,4.98 5.48,4.98 2.66,0 6.14,-1 10.46,-2.99 4.31,-1.99 8.71,-4.48 13.19,-7.47 4.48,-2.99 8.88,-6.39 13.2,-10.21 4.31,-3.82 7.97,-7.72 10.95,-11.7l1 0c-0.67,10.95 -3.07,22.32 -7.22,34.11 -4.15,11.78 -9.71,22.49 -16.68,32.12 -6.97,9.62 -15.44,17.59 -25.4,23.9 -9.96,6.31 -21.08,9.46 -33.36,9.46 -6.31,0 -11.95,-1.24 -16.93,-3.73 -4.98,-2.49 -9.3,-5.81 -12.95,-9.96 -3.65,-4.15 -6.72,-8.97 -9.21,-14.44 -2.49,-5.48 -4.4,-11.04 -5.73,-16.69 -12.61,14.94 -25.39,25.81 -38.34,32.62 -12.95,6.81 -25.23,10.21 -36.85,10.21 -17.59,0 -32.2,-6.81 -43.82,-20.42 -11.62,-13.61 -17.42,-32.36 -17.42,-56.27 0,-18.92 3.15,-36.84 9.46,-53.77 6.3,-16.94 14.69,-32.62 25.14,-47.06 10.46,-14.44 22.49,-27.47 36.1,-39.09 13.61,-11.62 27.97,-21.49 43.08,-29.63 15.1,-8.13 30.29,-14.36 45.56,-18.67 15.27,-4.32 29.71,-6.47 43.32,-6.47 15.6,0 28.05,3.23 37.35,9.71 9.29,6.47 13.94,15.35 13.94,26.64 0,11.61 -5.15,24.23 -15.44,37.84 -10.62,-2.99 -20.58,-4.48 -29.87,-4.48 -17.6,0 -33.86,4.07 -48.8,12.2 -14.94,8.13 -27.89,17.84 -38.84,29.13 -10.96,11.29 -19.51,22.99 -25.65,35.1 -6.14,12.12 -9.21,22 -9.21,29.63 0,8.3 3.49,12.45 10.46,12.45 6.3,0 13.94,-3.4 22.9,-10.21 8.97,-6.8 17.68,-15.35 26.15,-25.64 8.46,-10.29 15.93,-21.33 22.4,-33.12 6.48,-11.78 10.54,-22.65 12.2,-32.61zm289.81 12.95c-4.64,-11.96 -10.12,-20.5 -16.43,-25.65 -6.31,-5.14 -13.11,-7.72 -20.42,-7.72 -9.62,0 -19.75,3.9 -30.37,11.7 -10.62,7.81 -20.42,17.43 -29.38,28.89 -8.96,11.45 -16.43,23.48 -22.41,36.1 -5.97,12.61 -8.96,23.9 -8.96,33.86 0,7.63 2.16,13.86 6.47,18.67 4.32,4.81 11.29,7.22 20.92,7.22 7.96,0 17.18,-1.82 27.63,-5.48 10.46,-3.65 20.75,-8.46 30.88,-14.44 10.12,-5.97 19.42,-12.61 27.88,-19.91 8.47,-7.31 14.52,-14.61 18.18,-21.91 -2.99,15.93 -7.97,31.86 -14.94,47.8 -6.97,15.93 -15.94,30.29 -26.89,43.07 -10.96,12.78 -23.99,23.07 -39.09,30.87 -15.11,7.81 -32.28,11.71 -51.54,11.71 -14.61,0 -27.05,-1.83 -37.34,-5.48 -10.3,-3.65 -18.76,-8.63 -25.4,-14.94 -6.64,-6.31 -11.45,-13.78 -14.44,-22.41 -2.99,-8.63 -4.48,-18.09 -4.48,-28.38 0,-13.94 2.57,-28.8 7.72,-44.57 5.14,-15.77 12.11,-31.53 20.91,-47.3 8.8,-15.77 19.25,-30.79 31.37,-45.07 12.12,-14.27 25.06,-26.97 38.84,-38.09 13.78,-11.12 28.22,-19.92 43.32,-26.39 15.11,-6.48 30.13,-9.71 45.07,-9.71 19.25,0 33.19,4.15 41.82,12.45 8.64,8.3 12.95,18.59 12.95,30.87 0,10.29 -2.74,21.16 -8.21,32.62 -5.48,11.45 -13.37,21.99 -23.66,31.62zm5.48 109.05c0,-9.96 2.91,-22.74 8.72,-38.35 5.81,-15.6 12.86,-32.61 21.16,-51.04 8.3,-18.42 17.01,-37.51 26.14,-57.26 9.13,-19.75 17.18,-38.59 24.15,-56.52 1.66,0 3.41,-0.08 5.23,-0.25 1.83,-0.16 3.57,-0.25 5.23,-0.25 15.6,0 28.47,2.25 38.59,6.73 10.13,4.48 15.19,12.03 15.19,22.65 0,3.99 -1.74,10.05 -5.23,18.18 -3.48,8.13 -7.8,17.51 -12.95,28.13 -5.14,10.63 -10.78,21.75 -16.93,33.37 -6.14,11.61 -11.78,22.9 -16.93,33.86 -5.14,10.95 -9.46,20.99 -12.94,30.12 -3.49,9.13 -5.23,16.19 -5.23,21.17 0,6.63 2.99,9.95 8.96,9.95 4.65,0 10.54,-1.74 17.68,-5.22 7.14,-3.49 14.52,-7.81 22.16,-12.95 7.63,-5.15 15.02,-10.54 22.16,-16.18 7.13,-5.65 13.03,-10.63 17.67,-14.94 -2.65,10.95 -6.97,23.24 -12.94,36.85 -5.98,13.61 -13.53,26.22 -22.66,37.84 -9.13,11.62 -19.59,21.41 -31.37,29.38 -11.79,7.97 -24.48,11.95 -38.09,11.95 -8.97,0 -17.02,-1.91 -24.15,-5.73 -7.14,-3.81 -13.2,-8.88 -18.18,-15.18 -4.98,-6.31 -8.8,-13.53 -11.45,-21.66 -2.66,-8.14 -3.99,-16.35 -3.99,-24.65zm157.36 -235.53c-9.63,1.99 -17.93,2.98 -24.9,2.98 -11.62,0 -19.84,-2.32 -24.65,-6.97 -4.81,-4.64 -7.22,-10.79 -7.22,-18.42 0,-7.64 2.16,-16.02 6.47,-25.15 4.32,-9.13 9.8,-17.84 16.44,-26.14 18.59,0 31.86,2.41 39.83,7.22 7.97,4.81 11.95,12.03 11.95,21.66 0,11.95 -5.97,26.89 -17.92,44.82zm210.13 -100.59c11.62,9.63 19.92,18.51 24.9,26.64 4.98,8.13 7.47,15.85 7.47,23.16 0,8.29 -2.9,15.76 -8.71,22.4 -5.81,6.64 -13.2,12.2 -22.16,16.68 -8.97,4.49 -18.92,7.97 -29.88,10.46 -10.95,2.49 -21.58,3.74 -31.87,3.74 -10.95,0 -20.58,-3.74 -28.88,-11.21 -8.3,-7.47 -14.11,-16.02 -17.43,-25.64 9.3,-2.66 18.43,-5.4 27.39,-8.22 8.96,-2.82 17.84,-6.55 26.64,-11.2 8.8,-4.65 17.51,-10.63 26.14,-17.93 8.63,-7.3 17.43,-16.93 26.39,-28.88zm-49.29 218.6c0,-10.95 -3.07,-19 -9.22,-24.15 -6.14,-5.15 -13.52,-7.72 -22.15,-7.72 -7.31,0 -15.03,1.58 -23.16,4.73 -8.13,3.16 -15.85,7.72 -23.15,13.7l2.98 0c8.63,0 17.1,1.82 25.4,5.47 8.3,3.65 16.43,9.63 24.4,17.93 -9.96,2.99 -19.01,7.72 -27.14,14.19 -8.13,6.47 -15.1,13.69 -20.91,21.66 -5.81,7.97 -10.38,16.19 -13.7,24.65 -3.32,8.47 -4.98,16.02 -4.98,22.66 0,5.64 1.33,10.29 3.99,13.94 2.65,3.65 6.8,5.48 12.45,5.48 7.96,0 16.35,-3.9 25.14,-11.7 8.8,-7.81 16.93,-17.43 24.4,-28.89 7.47,-11.45 13.61,-23.65 18.43,-36.6 4.81,-12.94 7.22,-24.73 7.22,-35.35zm-166.32 111.54c0,-14.27 1.83,-27.88 5.48,-40.83 3.65,-12.95 8.63,-24.73 14.94,-35.36l0 -4.48c0,-18.25 4.64,-35.27 13.94,-51.04 9.29,-15.77 21.16,-29.38 35.6,-40.83 14.44,-11.45 30.46,-20.5 48.06,-27.14 17.59,-6.64 34.52,-9.96 50.79,-9.96 10.29,0 20.08,1.5 29.38,4.49 9.29,2.98 17.34,7.63 24.15,13.94 6.8,6.31 12.2,14.44 16.18,24.4 3.98,9.96 5.97,21.91 5.97,35.85 0,21.25 -4.23,43.74 -12.69,67.47 -8.47,23.74 -20.25,45.56 -35.36,65.48 -15.1,19.92 -33.03,36.44 -53.78,49.55 -20.74,13.11 -43.23,19.67 -67.47,19.67 -9.29,0 -18.42,-1.83 -27.39,-5.48 -8.96,-3.65 -17.01,-8.63 -24.15,-14.94 -7.13,-6.31 -12.86,-13.86 -17.18,-22.65 -4.31,-8.8 -6.47,-18.18 -6.47,-28.14zm281.84 69.22c-4.64,0 -10.45,-0.67 -17.42,-2 -6.97,-1.32 -13.78,-3.4 -20.42,-6.22 -6.64,-2.82 -12.37,-6.47 -17.18,-10.95 -4.81,-4.49 -7.22,-10.05 -7.22,-16.69 0,-5.97 2.08,-14.69 6.23,-26.14 4.14,-11.45 9.46,-24.4 15.93,-38.84 6.47,-14.44 13.61,-29.79 21.41,-46.06 7.8,-16.27 15.27,-32.28 22.41,-48.05 7.14,-15.77 13.44,-30.63 18.92,-44.57 5.48,-13.94 9.38,-25.89 11.7,-35.85 5.31,0 11.29,1 17.93,2.99 6.64,1.99 12.86,4.65 18.67,7.96 5.81,3.32 10.63,7.47 14.44,12.45 3.82,4.98 5.73,10.46 5.73,16.44 0,4.98 -0.42,10.12 -1.25,15.43 -0.83,5.31 -2.4,11.12 -4.73,17.43 8.64,-7.3 16.69,-14.61 24.15,-21.91 7.47,-7.3 14.94,-13.78 22.41,-19.42 7.47,-5.64 15.36,-10.29 23.66,-13.94 8.29,-3.65 17.59,-5.48 27.88,-5.48 7.97,0 15.1,3.24 21.41,9.71 6.31,6.47 9.46,15.35 9.46,26.64 0,9.96 -3.15,21.16 -9.46,33.61 -6.31,12.45 -13.28,24.98 -20.91,37.6 -7.64,12.61 -14.61,25.06 -20.92,37.34 -6.3,12.29 -9.46,23.24 -9.46,32.87 0,7.97 3.65,11.95 10.96,11.95 3.65,0 7.88,-0.91 12.7,-2.74 4.81,-1.82 9.62,-3.98 14.44,-6.47 4.81,-2.49 9.29,-5.15 13.44,-7.97 4.15,-2.82 7.55,-5.23 10.21,-7.22 -1.66,10.62 -5.06,21.66 -10.21,33.11 -5.14,11.46 -11.7,21.91 -19.67,31.37 -7.97,9.47 -17.18,17.35 -27.63,23.66 -10.46,6.3 -21.83,9.46 -34.11,9.46 -20.92,0 -35.36,-4.32 -43.33,-12.95 -7.96,-8.63 -11.95,-19.58 -11.95,-32.86 0,-9.96 1.33,-19.84 3.99,-29.63 2.65,-9.79 5.97,-19.5 9.96,-29.13 3.98,-9.63 8.38,-19.26 13.19,-28.88 4.82,-9.63 9.38,-19.26 13.7,-28.88 -6.98,0 -14.2,2.57 -21.67,7.71 -7.46,5.15 -14.77,12.12 -21.9,20.92 -7.14,8.8 -14.11,18.75 -20.92,29.88 -6.8,11.12 -13.11,22.74 -18.92,34.85 -5.81,12.12 -10.87,24.15 -15.19,36.1 -4.31,11.95 -7.8,23.08 -10.46,33.37z"/>
      <path class="fil0" d="M6253.82 2035.59c0,15.61 -2.82,30.79 -8.46,45.57 -5.65,14.77 -13.36,28.71 -23.16,41.82 -9.79,13.12 -21.08,25.23 -33.86,36.35 -12.78,11.12 -26.22,20.67 -40.33,28.64 -14.11,7.96 -28.55,14.19 -43.32,18.67 -14.78,4.48 -28.8,6.72 -42.08,6.72 -11.62,0 -22.49,-1.82 -32.62,-5.48 -10.12,-3.65 -18.92,-9.46 -26.39,-17.42 -7.47,-7.97 -13.36,-18.26 -17.67,-30.88 -4.32,-12.61 -6.48,-27.72 -6.48,-45.31 0,-20.25 3.57,-42.24 10.71,-65.98 7.14,-23.73 17.1,-47.39 29.88,-70.96 12.78,-23.57 27.88,-46.39 45.31,-68.46 17.43,-22.08 36.43,-41.58 57.01,-58.51 20.59,-16.93 42.25,-30.46 64.99,-40.59 22.74,-10.12 45.73,-15.18 68.96,-15.18 13.61,0 25.07,1.49 34.36,4.48 9.3,2.98 16.77,7.05 22.41,12.2 5.64,5.14 9.71,11.2 12.2,18.17 2.49,6.97 3.73,14.28 3.73,21.91 0,9.63 -1.57,19.42 -4.73,29.38 -3.15,9.96 -7.05,19.34 -11.7,28.14 -4.65,8.79 -9.87,16.68 -15.68,23.65 -5.81,6.97 -11.21,11.95 -16.19,14.94 -6.64,-20.92 -14.35,-35.77 -23.15,-44.57 -8.8,-8.8 -18.34,-13.2 -28.63,-13.2 -10.3,0 -20.84,3.66 -31.62,10.96 -10.79,7.3 -21.42,16.68 -31.87,28.13 -10.46,11.46 -20.34,24.4 -29.63,38.84 -9.3,14.44 -17.43,28.88 -24.4,43.32 -6.97,14.45 -12.53,28.14 -16.68,41.09 -4.15,12.94 -6.23,23.73 -6.23,32.36 0,8.3 3.07,14.53 9.22,18.68 6.14,4.15 14.35,6.22 24.64,6.22 8.64,0 18.35,-1.58 29.13,-4.73 10.79,-3.15 22,-7.8 33.62,-13.94 11.62,-6.14 23.32,-13.95 35.1,-23.41 11.79,-9.46 22.99,-20.66 33.61,-33.61l0 1.99zm161.34 -8.96c0,-10.95 -3.07,-19 -9.22,-24.15 -6.14,-5.15 -13.52,-7.72 -22.15,-7.72 -7.31,0 -15.03,1.58 -23.16,4.73 -8.13,3.16 -15.85,7.72 -23.15,13.7l2.98 0c8.63,0 17.1,1.82 25.4,5.47 8.3,3.65 16.43,9.63 24.4,17.93 -9.96,2.99 -19.01,7.72 -27.14,14.19 -8.13,6.47 -15.1,13.69 -20.91,21.66 -5.81,7.97 -10.38,16.19 -13.7,24.65 -3.32,8.47 -4.98,16.02 -4.98,22.66 0,5.64 1.33,10.29 3.99,13.94 2.65,3.65 6.8,5.48 12.45,5.48 7.96,0 16.35,-3.9 25.14,-11.7 8.8,-7.81 16.93,-17.43 24.4,-28.89 7.47,-11.45 13.61,-23.65 18.43,-36.6 4.81,-12.94 7.22,-24.73 7.22,-35.35zm-166.32 111.54c0,-14.27 1.83,-27.88 5.48,-40.83 3.65,-12.95 8.63,-24.73 14.94,-35.36l0 -4.48c0,-18.25 4.64,-35.27 13.94,-51.04 9.29,-15.77 21.16,-29.38 35.6,-40.83 14.44,-11.45 30.46,-20.5 48.06,-27.14 17.59,-6.64 34.52,-9.96 50.79,-9.96 10.29,0 20.08,1.5 29.38,4.49 9.29,2.98 17.34,7.63 24.15,13.94 6.8,6.31 12.2,14.44 16.18,24.4 3.98,9.96 5.97,21.91 5.97,35.85 0,21.25 -4.23,43.74 -12.69,67.47 -8.47,23.74 -20.25,45.56 -35.36,65.48 -15.1,19.92 -33.03,36.44 -53.78,49.55 -20.74,13.11 -43.23,19.67 -67.47,19.67 -9.29,0 -18.42,-1.83 -27.39,-5.48 -8.96,-3.65 -17.01,-8.63 -24.15,-14.94 -7.13,-6.31 -12.86,-13.86 -17.18,-22.65 -4.31,-8.8 -6.47,-18.18 -6.47,-28.14zm549.74 -14.94c0,7.64 3.65,11.46 10.96,11.46 3.65,0 7.88,-0.92 12.69,-2.74 4.82,-1.83 9.71,-4.07 14.69,-6.73 4.98,-2.65 9.63,-5.47 13.95,-8.46 4.31,-2.99 7.8,-5.48 10.45,-7.47 -1.66,10.62 -5.39,22.08 -11.2,34.36 -5.81,12.28 -13.2,23.65 -22.16,34.11 -8.96,10.46 -19,19.25 -30.13,26.39 -11.12,7.14 -22.82,10.71 -35.1,10.71 -9.3,0 -17.01,-1.17 -23.16,-3.49 -6.14,-2.32 -11.12,-5.64 -14.93,-9.96 -3.82,-4.31 -6.56,-9.38 -8.22,-15.19 -1.66,-5.81 -2.49,-12.03 -2.49,-18.67 0,-11.29 1.83,-23.4 5.48,-36.35 3.65,-12.95 7.97,-25.4 12.94,-37.35 4.98,-11.95 10.05,-22.74 15.19,-32.36 5.15,-9.63 9.21,-16.6 12.2,-20.92 -4.31,0 -9.87,2.58 -16.68,7.72 -6.8,5.15 -14.03,12.12 -21.66,20.92 -7.64,8.79 -15.44,18.75 -23.4,29.87 -7.97,11.12 -15.44,22.74 -22.41,34.86 -6.97,12.12 -13.03,24.23 -18.18,36.35 -5.14,12.12 -8.71,23.32 -10.7,33.61 -4.65,1.66 -10.13,2.49 -16.44,2.49 -5.64,0 -11.12,-0.83 -16.43,-2.49 -5.31,-1.66 -10.04,-4.15 -14.19,-7.47 -4.15,-3.32 -7.47,-7.22 -9.96,-11.7 -2.49,-4.48 -3.73,-9.71 -3.73,-15.69 0,-10.95 1.91,-21.57 5.72,-31.86 3.82,-10.3 8.47,-20.59 13.95,-30.88 5.47,-10.29 11.03,-20.5 16.68,-30.62 5.64,-10.13 10.29,-20.5 13.94,-31.12 -8.96,0 -18.76,5.39 -29.38,16.18 -10.62,10.79 -21.08,24.32 -31.37,40.58 -10.29,16.27 -19.75,33.95 -28.38,53.03 -8.63,19.09 -15.44,36.77 -20.42,53.04 -1.33,0.33 -2.65,0.49 -3.98,0.49 -1.33,0 -2.66,0 -3.99,0 -14.93,0 -27.05,-4.23 -36.35,-12.69 -9.29,-8.47 -13.94,-19.84 -13.94,-34.11 0,-3.65 2.08,-10.79 6.23,-21.42 4.14,-10.62 9.46,-23.15 15.93,-37.59 6.47,-14.44 13.36,-29.96 20.66,-46.56 7.31,-16.6 14.2,-32.7 20.67,-48.3 6.47,-15.6 11.78,-29.88 15.93,-42.82 4.15,-12.95 6.23,-22.91 6.23,-29.88 9.29,-2.32 18.26,-3.49 26.89,-3.49 12.94,0 22.99,2.91 30.12,8.72 7.14,5.81 10.71,14.02 10.71,24.65 0,12.94 -5.31,28.05 -15.93,45.31 8.63,-9.63 17.59,-18.67 26.88,-27.14 9.3,-8.46 18.51,-15.77 27.64,-21.91 9.13,-6.14 17.93,-11.04 26.39,-14.69 8.47,-3.65 16.19,-5.48 23.16,-5.48 9.96,0 18.01,4.07 24.15,12.2 6.14,8.14 9.21,21.67 9.21,40.59 15.93,-16.93 31.79,-30.13 47.55,-39.59 15.77,-9.46 29.47,-14.19 41.08,-14.19 11.29,0 19.18,2.57 23.66,7.72 4.48,5.14 6.72,11.87 6.72,20.16 0,7.64 -1.58,16.44 -4.73,26.4 -3.15,9.95 -7.06,20.16 -11.7,30.62 -4.65,10.46 -9.8,20.91 -15.44,31.37 -5.64,10.46 -10.79,20.17 -15.44,29.13 -4.64,8.96 -8.54,16.85 -11.7,23.65 -3.15,6.81 -4.73,11.7 -4.73,14.69zm237.02 -111.04c-5.97,0 -13.19,2.41 -21.66,7.22 -8.46,4.81 -16.68,10.87 -24.64,18.18 -7.97,7.3 -14.69,15.27 -20.17,23.9 -5.48,8.63 -8.22,16.6 -8.22,23.9 0,13.61 1.58,23.24 4.73,28.88 3.16,5.64 7.06,8.46 11.7,8.46 6.31,0 13.45,-3.73 21.42,-11.2 7.96,-7.47 15.6,-16.43 22.9,-26.89 7.31,-10.46 13.45,-21 18.43,-31.62 4.98,-10.62 7.47,-19.25 7.47,-25.89 0,-4.65 -0.92,-8.3 -2.74,-10.96 -1.83,-2.65 -4.9,-3.98 -9.22,-3.98zm-161.83 289.31c-5.97,0 -12.7,-1.08 -20.17,-3.24 -7.47,-2.16 -14.6,-5.31 -21.41,-9.46 -6.8,-4.15 -12.53,-9.29 -17.18,-15.44 -4.64,-6.14 -6.97,-13.19 -6.97,-21.16 0,-7.3 2.91,-19.09 8.72,-35.35 5.8,-16.27 13.11,-34.86 21.91,-55.77 8.79,-20.92 18.5,-43.24 29.13,-66.98 10.62,-23.73 20.74,-46.72 30.37,-68.96 9.63,-22.25 18.01,-42.83 25.15,-61.75 7.13,-18.92 11.86,-34.03 14.19,-45.31 6.31,0.33 13.11,1.33 20.41,2.98 7.31,1.66 14.11,4.24 20.42,7.72 6.31,3.49 11.54,7.89 15.69,13.2 4.15,5.31 6.22,11.95 6.22,19.92 0,8.96 -3.15,19.25 -9.46,30.87 1,-1 2.07,-1.91 3.24,-2.74 1.16,-0.83 2.24,-1.58 3.23,-2.24 15.27,-12.61 29.3,-23.24 42.08,-31.87 12.78,-8.63 26.47,-12.95 41.08,-12.95 18.92,0 32.45,5.32 40.58,15.94 8.14,10.62 12.2,24.4 12.2,41.33 0,12.95 -2.15,26.97 -6.47,42.08 -4.32,15.1 -10.13,30.29 -17.43,45.56 -7.3,15.27 -16.02,29.96 -26.14,44.07 -10.13,14.11 -20.92,26.64 -32.37,37.59 -11.45,10.96 -23.4,19.75 -35.85,26.39 -12.45,6.64 -24.81,9.96 -37.1,9.96 -7.3,0 -13.61,-1.41 -18.92,-4.23 -5.31,-2.82 -10.12,-6.64 -14.44,-11.45 -4.32,-4.82 -8.05,-10.21 -11.2,-16.19 -3.16,-5.97 -6.06,-12.11 -8.72,-18.42 -4.31,10.29 -9.38,21.41 -15.19,33.36 -5.81,11.95 -11.37,24.32 -16.68,37.1 -5.31,12.78 -9.79,25.56 -13.44,38.34 -3.65,12.78 -5.48,25.15 -5.48,37.1zm426.24 -279.35c5.65,-1.66 10.63,-2.49 14.94,-2.49 5.98,0 11.54,1.08 16.68,3.24 5.15,2.15 9.71,4.98 13.7,8.46 3.98,3.49 7.05,7.47 9.21,11.95 2.16,4.48 3.24,9.21 3.24,14.19 0,1.99 -1.5,5.9 -4.49,11.71 -2.98,5.8 -6.22,12.53 -9.71,20.16 -3.48,7.64 -6.72,15.6 -9.71,23.9 -2.98,8.3 -4.48,16.1 -4.48,23.41 0,3.32 1.83,4.98 5.48,4.98 2.66,0 6.14,-1 10.46,-2.99 4.31,-1.99 8.71,-4.48 13.19,-7.47 4.48,-2.99 8.88,-6.39 13.2,-10.21 4.31,-3.82 7.97,-7.72 10.95,-11.7l1 0c-0.67,10.95 -3.07,22.32 -7.22,34.11 -4.15,11.78 -9.71,22.49 -16.68,32.12 -6.97,9.62 -15.44,17.59 -25.4,23.9 -9.96,6.31 -21.08,9.46 -33.36,9.46 -6.31,0 -11.95,-1.24 -16.93,-3.73 -4.98,-2.49 -9.3,-5.81 -12.95,-9.96 -3.65,-4.15 -6.72,-8.97 -9.21,-14.44 -2.49,-5.48 -4.4,-11.04 -5.73,-16.69 -12.61,14.94 -25.39,25.81 -38.34,32.62 -12.95,6.81 -25.23,10.21 -36.85,10.21 -17.59,0 -32.2,-6.81 -43.82,-20.42 -11.62,-13.61 -17.42,-32.36 -17.42,-56.27 0,-18.92 3.15,-36.84 9.46,-53.77 6.3,-16.94 14.69,-32.62 25.14,-47.06 10.46,-14.44 22.49,-27.47 36.1,-39.09 13.61,-11.62 27.97,-21.49 43.08,-29.63 15.1,-8.13 30.29,-14.36 45.56,-18.67 15.27,-4.32 29.71,-6.47 43.32,-6.47 15.6,0 28.05,3.23 37.35,9.71 9.29,6.47 13.94,15.35 13.94,26.64 0,11.61 -5.15,24.23 -15.44,37.84 -10.62,-2.99 -20.58,-4.48 -29.87,-4.48 -17.6,0 -33.86,4.07 -48.8,12.2 -14.94,8.13 -27.89,17.84 -38.84,29.13 -10.96,11.29 -19.51,22.99 -25.65,35.1 -6.14,12.12 -9.21,22 -9.21,29.63 0,8.3 3.49,12.45 10.46,12.45 6.3,0 13.94,-3.4 22.9,-10.21 8.97,-6.8 17.68,-15.35 26.15,-25.64 8.46,-10.29 15.93,-21.33 22.4,-33.12 6.48,-11.78 10.54,-22.65 12.2,-32.61zm49.3 144.9c0,-5.97 2.24,-15.1 6.73,-27.39 4.48,-12.28 10.04,-26.14 16.68,-41.57 6.64,-15.44 13.94,-31.87 21.91,-49.3 7.96,-17.43 15.52,-34.28 22.65,-50.54 7.14,-16.27 13.28,-31.21 18.43,-44.82 5.14,-13.61 8.21,-24.56 9.21,-32.86 8.63,0 16.35,1.74 23.15,5.23 6.81,3.48 12.62,8.13 17.43,13.94 4.82,5.81 8.55,12.61 11.21,20.41 2.65,7.81 4.15,16.02 4.48,24.65 4.31,-2.99 9.38,-7.38 15.19,-13.19 5.8,-5.81 12.53,-11.54 20.16,-17.18 7.64,-5.65 16.02,-10.54 25.15,-14.69 9.13,-4.15 19.17,-6.23 30.12,-6.23 8.97,0 15.77,3.41 20.42,10.21 4.65,6.81 6.97,15.52 6.97,26.14 0,8.97 -1.66,18.51 -4.98,28.64 -3.32,10.12 -8.46,20 -15.43,29.62 -6.98,9.63 -15.69,18.43 -26.15,26.4 -10.45,7.96 -22.65,14.1 -36.6,18.42 5.65,-7.64 9.96,-16.52 12.95,-26.64 2.99,-10.13 4.48,-18.51 4.48,-25.15 0,-8.63 -3.98,-12.94 -11.95,-12.94 -4.31,0 -9.29,1.16 -14.94,3.48 -5.64,2.33 -11.53,5.65 -17.67,9.96 -6.15,4.32 -12.2,9.46 -18.18,15.44 -5.97,5.97 -11.45,12.61 -16.43,19.92 -4.65,6.63 -9.88,16.34 -15.69,29.13 -5.81,12.78 -11.62,26.47 -17.43,41.08 -5.8,14.6 -11.28,29.04 -16.43,43.32 -5.14,14.27 -9.04,26.39 -11.7,36.35 -5.64,0 -12.2,-0.5 -19.67,-1.5 -7.47,-0.99 -14.44,-2.98 -20.91,-5.97 -6.48,-2.99 -11.95,-7.06 -16.43,-12.2 -4.49,-5.15 -6.73,-11.87 -6.73,-20.17zm214.62 -22.9c0,-10.63 3.07,-20.34 9.21,-29.13 6.14,-8.8 13.03,-16.68 20.67,-23.66 3.98,8.97 9.21,16.6 15.68,22.91 6.48,6.31 13.61,11.37 21.42,15.19 7.8,3.81 15.76,6.64 23.9,8.46 8.13,1.83 16.01,2.74 23.65,2.74 11.95,0 22.16,-1.91 30.62,-5.73 8.47,-3.81 12.7,-9.04 12.7,-15.68 0,-3.65 -2.82,-6.56 -8.46,-8.72 -5.65,-2.15 -12.7,-4.14 -21.17,-5.97 -8.46,-1.83 -17.59,-3.98 -27.38,-6.47 -9.8,-2.49 -18.93,-5.65 -27.39,-9.46 -8.47,-3.82 -15.52,-8.64 -21.16,-14.45 -5.65,-5.8 -8.47,-13.36 -8.47,-22.65 0,-15.6 4.73,-30.46 14.19,-44.57 9.46,-14.11 21.41,-26.56 35.85,-37.34 14.44,-10.79 30.46,-19.34 48.06,-25.65 17.59,-6.31 34.52,-9.46 50.79,-9.46 8.96,0 16.43,1.24 22.41,3.73 5.97,2.49 10.87,5.98 14.68,10.46 3.82,4.48 6.56,9.71 8.22,15.69 1.66,5.97 2.49,12.28 2.49,18.92 0,11.29 -1.91,22.99 -5.73,35.1 -3.81,12.12 -8.54,23.16 -14.19,33.12 -3.98,-14.28 -10.04,-24.15 -18.17,-29.63 -8.14,-5.48 -16.52,-8.22 -25.15,-8.22 -5.64,0 -11.04,0.83 -16.18,2.49 -5.15,1.66 -9.71,3.82 -13.7,6.48 -3.98,2.65 -7.22,5.47 -9.71,8.46 -2.49,2.99 -3.73,5.98 -3.73,8.96 0,5.32 2.24,9.55 6.72,12.7 4.48,3.16 10.04,5.81 16.68,7.97 6.64,2.16 13.86,4.32 21.66,6.47 7.8,2.16 15.03,5.31 21.66,9.46 6.64,4.15 12.2,9.47 16.69,15.94 4.48,6.47 6.72,15.19 6.72,26.14 0,14.28 -4.07,26.97 -12.2,38.09 -8.13,11.13 -18.59,20.59 -31.37,28.39 -12.78,7.8 -27.06,13.77 -42.83,17.92 -15.76,4.15 -31.45,6.23 -47.05,6.23 -11.95,0 -23.41,-1.25 -34.36,-3.74 -10.96,-2.49 -20.58,-6.39 -28.88,-11.7 -8.3,-5.31 -14.94,-12.12 -19.92,-20.41 -4.98,-8.3 -7.47,-18.1 -7.47,-29.38zm417.78 -122c5.65,-1.66 10.63,-2.49 14.94,-2.49 5.98,0 11.54,1.08 16.68,3.24 5.15,2.15 9.71,4.98 13.7,8.46 3.98,3.49 7.05,7.47 9.21,11.95 2.16,4.48 3.24,9.21 3.24,14.19 0,1.99 -1.5,5.9 -4.49,11.71 -2.98,5.8 -6.22,12.53 -9.71,20.16 -3.48,7.64 -6.72,15.6 -9.71,23.9 -2.98,8.3 -4.48,16.1 -4.48,23.41 0,3.32 1.83,4.98 5.48,4.98 2.66,0 6.14,-1 10.46,-2.99 4.31,-1.99 8.71,-4.48 13.19,-7.47 4.48,-2.99 8.88,-6.39 13.2,-10.21 4.31,-3.82 7.97,-7.72 10.95,-11.7l1 0c-0.67,10.95 -3.07,22.32 -7.22,34.11 -4.15,11.78 -9.71,22.49 -16.68,32.12 -6.97,9.62 -15.44,17.59 -25.4,23.9 -9.96,6.31 -21.08,9.46 -33.36,9.46 -6.31,0 -11.95,-1.24 -16.93,-3.73 -4.98,-2.49 -9.3,-5.81 -12.95,-9.96 -3.65,-4.15 -6.72,-8.97 -9.21,-14.44 -2.49,-5.48 -4.4,-11.04 -5.73,-16.69 -12.61,14.94 -25.39,25.81 -38.34,32.62 -12.95,6.81 -25.23,10.21 -36.85,10.21 -17.59,0 -32.2,-6.81 -43.82,-20.42 -11.62,-13.61 -17.42,-32.36 -17.42,-56.27 0,-18.92 3.15,-36.84 9.46,-53.77 6.3,-16.94 14.69,-32.62 25.14,-47.06 10.46,-14.44 22.49,-27.47 36.1,-39.09 13.61,-11.62 27.97,-21.49 43.08,-29.63 15.1,-8.13 30.29,-14.36 45.56,-18.67 15.27,-4.32 29.71,-6.47 43.32,-6.47 15.6,0 28.05,3.23 37.35,9.71 9.29,6.47 13.94,15.35 13.94,26.64 0,11.61 -5.15,24.23 -15.44,37.84 -10.62,-2.99 -20.58,-4.48 -29.87,-4.48 -17.6,0 -33.86,4.07 -48.8,12.2 -14.94,8.13 -27.89,17.84 -38.84,29.13 -10.96,11.29 -19.51,22.99 -25.65,35.1 -6.14,12.12 -9.21,22 -9.21,29.63 0,8.3 3.49,12.45 10.46,12.45 6.3,0 13.94,-3.4 22.9,-10.21 8.97,-6.8 17.68,-15.35 26.15,-25.64 8.46,-10.29 15.93,-21.33 22.4,-33.12 6.48,-11.78 10.54,-22.65 12.2,-32.61z"/>
     </g>
    </g>
   </g>
  </g>
 </g>
</svg>
